<?xml version="1.0" encoding="UTF-8" standalone="no"?>
<!-- Created with Inkscape (http://www.inkscape.org/) -->

<svg
   version="1.1"
   id="svg1"
   width="800"
   height="800"
   viewBox="0 0 800.00001 800"
   sodipodi:docname="favicon.svg"
   inkscape:version="1.4 (e7c3feb100, 2024-10-09)"
   inkscape:export-filename="favicon.png"
   inkscape:export-xdpi="96"
   inkscape:export-ydpi="96"
   xmlns:inkscape="http://www.inkscape.org/namespaces/inkscape"
   xmlns:sodipodi="http://sodipodi.sourceforge.net/DTD/sodipodi-0.dtd"
   xmlns="http://www.w3.org/2000/svg"
   xmlns:svg="http://www.w3.org/2000/svg">
  <defs
     id="defs1" />
  <sodipodi:namedview
     id="namedview1"
     pagecolor="#2a315a"
     bordercolor="#000000"
     borderopacity="0.25"
     inkscape:showpageshadow="2"
     inkscape:pageopacity="0.0"
     inkscape:pagecheckerboard="0"
     inkscape:deskcolor="#d1d1d1"
     inkscape:zoom="0.48049848"
     inkscape:cx="364.20511"
     inkscape:cy="419.35617"
     inkscape:window-width="1440"
     inkscape:window-height="831"
     inkscape:window-x="0"
     inkscape:window-y="0"
     inkscape:window-maximized="1"
     inkscape:current-layer="g1"
     inkscape:export-bgcolor="#2a315aff" />
  <g
     inkscape:groupmode="layer"
     inkscape:label="Image"
     id="g1"
     transform="translate(-318.99114,-227.16761)">
    <path
       style="fill:#c2c8d5;fill-opacity:1;stroke:#c2c8d5;stroke-width:4.13522;stroke-dasharray:none;stroke-opacity:1"
       d="m 680.6249,326.63865 c -14.60385,1.534 -26.05314,8.05631 -39.55431,10.58782 -18.09466,3.39283 -37.4107,2.12132 -55.73559,3.94535 -44.08235,4.38792 -89.13797,12.78222 -131.24835,26.81905 -25.94353,8.6479 -57.57019,17.96869 -77.31068,37.75638 -28.42685,28.49472 -11.82427,88.99388 -14.18361,125.7048 -0.45371,7.05977 -9.15015,13.48572 -12.38567,19.92692 -6.07853,12.10109 -9.7485,27.75292 -9.33924,41.35223 0.49974,16.60708 6.04638,35.51271 16.58086,48.5439 5.22203,6.45964 14.23523,10.4963 18.02915,17.97924 9.20777,18.16107 4.28769,41.3217 16.53092,59.33144 12.22948,17.98944 29.80586,22.93383 49.4928,28.76677 36.57019,10.83515 74.88709,13.38191 111.47121,23.37299 v 3.59585 c -12.37406,4.00339 -29.99334,8.67038 -41.3023,14.58309 -5.29166,2.76668 -5.65685,9.40694 -10.98729,11.8364 -35.21885,16.05137 -98.26004,18.98014 -86.50007,76.06209 1.4527,7.05122 3.93536,13.95244 8.29043,19.77715 12.09526,16.17691 30.55979,21.5551 49.59271,24.77136 8.03874,1.35844 24.65944,-0.15624 29.26618,7.74113 4.84595,8.3073 4.01256,24.52877 5.04419,34.01064 3.68299,33.85174 2.68525,76.16145 39.40446,89.84615 7.5485,2.8132 15.32042,5.0377 23.373,5.4437 -0.93491,18.5417 -11.03215,42.9862 -25.32076,55.2862 -5.58006,4.8033 -13.53558,4.9746 -18.8782,10.1881 -6.11001,5.9625 -10.57086,17.1815 -3.89547,24.2222 15.91721,16.788 47.96153,-11.1131 58.88196,-21.4254 11.26044,-10.6333 19.75284,-23.8815 26.56928,-37.7064 2.93676,-5.9563 4.77619,-16.5829 9.93851,-20.9259 5.03855,-4.2386 21.72584,-0.6492 28.21742,-0.6492 26.99951,0 53.72859,0.2518 80.90652,0 7.46317,-0.069 25.65705,-6.1687 31.76324,-1.0488 15.82376,13.2681 1.83512,45.4616 0.79908,60.3803 -0.76704,11.0451 6.94446,18.0932 17.77951,15.9815 9.04668,-1.7632 13.24125,-11.8225 16.13138,-19.5774 7.74158,-20.7724 7.24161,-42.9213 7.24161,-64.7252 20.3914,-1.0282 53.38846,-8.7482 63.02712,-28.7667 10.48027,-21.7669 3.49606,-58.97263 3.49606,-82.70445 47.5955,0 115.42634,8.45937 152.42384,-24.22203 14.3112,-12.64174 20.0002,-38.00032 27.8179,-54.88656 4.0644,-8.77958 9.6904,-17.03879 10.2881,-26.96884 0.6177,-10.26355 -8.9189,-20.19086 -7.1917,-28.76676 5.0018,-24.83688 25.1147,-52.82134 36.4079,-75.51276 3.549,-7.13111 11.7543,-18.92132 11.5865,-26.96884 -0.1618,-7.73401 -10.5822,-14.77733 -15.5818,-19.77714 -24.4797,-24.47947 -55.6207,-14.38338 -88.09821,-14.38338 0,-32.99864 9.02711,-64.51024 7.14171,-97.08782 -1.76171,-30.4397 -12.6523,-59.29469 -15.9815,-89.89613 -3.1211,-28.68568 -4.92604,-69.8115 -23.27313,-93.44205 -12.3956,-15.96491 -34.01505,-22.69185 -52.38947,-28.8167 -44.75946,-14.91977 -93.21722,-24.19777 -140.238,-26.9189 -23.08153,-1.33572 -56.97106,0.60552 -77.11091,-12.13598 -5.12244,-3.24074 -2.66148,-10.03145 -1.89782,-14.88279 2.02084,-12.83841 1.52595,-35.53903 8.39034,-46.54628 2.82187,-4.52497 8.0986,-5.48945 9.98844,-10.98725 3.60589,-10.48992 -6.62266,-19.07198 -16.68072,-15.58192 -5.84994,2.02991 -7.99924,7.9818 -6.99192,13.784 4.38267,25.24401 -3.79561,47.63201 -3.79561,73.71483 m 21.57507,-71.91691 c -18.22202,2.4603 -4.5425,-17.07093 0,0 m 95.2899,440.49105 -16.13139,-3.94547 -11.53671,16.53093 -28.51699,54.83663 -22.92351,2.69689 h -59.33144 v -1.79792 c 26.09659,-2.74134 53.61481,-16.13389 70.81822,-35.95845 5.36403,-6.18124 13.80737,-9.62324 18.47853,-16.23124 4.95887,-7.01513 8.07386,-26.87513 10.68766,-35.90852 37.79951,-130.63492 -145.94251,-218.75705 -224.74027,-107.87535 -10.65881,14.99878 -18.84087,33.63072 -20.72604,52.13974 -3.76034,36.91965 7.50813,70.38675 31.11403,98.88575 12.94518,15.62844 44.87537,24.35844 38.85511,46.74599 l -104.27951,-16.1813 c -3.78739,-75.11408 -13.97375,-151.67745 -21.42524,-226.53825 -3.20478,-32.19646 4.80092,-71.49749 -4.59471,-102.48159 -5.89641,-19.44465 -26.83524,-23.35741 -44.09903,-25.17092 8.09884,-7.77703 21.90098,-11.08689 32.3626,-15.08263 27.80323,-10.61919 57.15713,-17.2217 86.30029,-23.02337 100.65315,-20.03767 210.09621,-17.43778 311.04065,-1.54815 35.45162,5.58043 89.14697,14.25531 114.91725,41.502 15.5088,16.39738 16.7956,45.28892 20.3265,66.47321 8.24283,49.4579 12.18603,100.90753 12.18603,151.0255 0,16.97635 3.84979,39.32397 -0.7493,55.68567 -3.6321,12.92137 -36.97963,7.24162 -47.79473,7.24162 -32.19217,0 -64.96722,1.68709 -97.08782,3.54592 -18.8787,1.09255 -33.25811,-4.8643 -43.15018,14.43331 M 473.8638,747.35255 c -52.77476,-5.54366 -88.95569,-32.14512 -89.89613,-88.09821 19.74483,0.33173 36.26993,2.98473 51.98991,-12.73525 32.39766,-32.39762 21.77561,-105.16475 -23.22316,-121.30985 -15.81215,-5.67327 -28.04469,0.97697 -43.15014,4.59466 V 457.887 c 0,-12.01593 -1.81686,-25.09345 4.34503,-35.95845 13.51087,-23.82325 60.57732,-33.06985 74.5638,-3.59585 4.12558,8.69388 1.99769,21.1887 1.99769,30.56469 0,19.42281 0.0236,40.00027 1.94777,59.33144 4.58336,46.04643 6.20187,92.37079 10.78752,138.44004 3.29374,33.09005 10.63771,67.4288 10.63771,100.68368 M 858.66906,443.00421 c -13.13255,7.27356 -1.95901,29.89969 12.48569,22.17433 15.11747,-8.08527 2.39915,-30.41829 -12.48569,-22.17433 m -275.13199,1.39837 c -16.6112,5.91326 -8.15259,33.1876 8.98961,26.96884 16.358,-5.93422 8.26553,-33.11122 -8.98961,-26.96884 m 273.28428,86.10058 c -81.35023,14.12319 -66.93655,144.27987 16.1813,129.84985 76.54522,-13.28897 61.16352,-143.27765 -16.1813,-129.84985 m -469.25785,1.49822 c 61.43071,-10.38097 72.84732,113.7715 12.58547,123.25756 -17.37064,2.73442 -33.81371,-12.80482 -41.65186,-26.56929 -17.2289,-30.25568 -12.86495,-89.60248 29.06639,-96.68827 m 291.26347,154.22179 35.95845,25.17092 c -4.10617,10.66628 -18.63633,17.76874 -28.76676,22.22427 -31.63477,13.91328 -67.15473,9.65209 -97.08782,-6.49244 -53.6747,-28.94958 -61.76337,-87.13045 -44.94806,-139.78849 h 1.79792 c -1.4951,14.23304 -3.39057,27.63527 2.5471,41.35222 3.82529,8.83707 10.14019,18.31578 17.27998,24.77136 56.85783,51.40936 134.49039,-24.08682 97.2876,-85.90072 -7.31378,-12.15211 -17.63998,-20.64068 -29.01647,-28.76677 9.96895,-5.74372 29.3645,1.64616 39.55429,5.4437 39.43113,14.69546 68.2234,54.83993 68.32106,97.03788 0.0255,11.03105 -0.006,40.7726 -11.23702,47.19547 -9.6353,5.50988 -39.84691,-2.2474 -51.69027,-2.2474 M 385.76559,543.13854 c -44.80131,10.47434 -32.17907,110.45549 16.1813,99.48501 45.08424,-10.22721 32.61626,-110.89365 -16.1813,-99.48501 m 512.40797,11.13704 c 19.2563,0.49152 18.37262,28.65484 0,29.1663 -18.65668,0.51939 -18.6885,-29.64333 0,-29.1663 m -258.90089,2.94665 c 19.41651,-4.59269 26.67332,24.4369 7.19169,29.21624 -17.89231,4.38946 -25.08871,-24.98295 -7.19169,-29.21624 m 188.78191,3.64577 c 19.19121,-3.27322 23.07832,26.85374 3.59585,29.56587 -17.44018,2.42781 -19.75842,-26.80917 -3.59585,-29.56587 m -255.30505,7.14177 c 19.23132,-2.29153 22.24841,27.93133 3.59585,29.96541 -19.22227,2.09619 -21.78818,-27.79768 -3.59585,-29.96541 m 489.03497,116.41549 -3.5959,5.39376 h 10.7876 v 3.59584 h -7.1917 v 1.79793 l 16.1813,3.59584 v 1.79793 l -267.89041,7.19169 1.79793,-10.78754 h -1.79793 l -5.39384,7.19169 c 4.89009,-20.06663 45.48731,-14.38338 62.92734,-14.38338 64.74568,0 129.3864,-5.39376 194.17561,-5.39376 m -240.92157,14.38337 v 1.79793 l 226.53817,-5.39377 v -3.59585 l -167.20676,5.24399 -59.33141,1.9477 m -239.12378,77.31068 -1.29852,11.98609 -16.6807,6.04306 -43.15014,14.33345 c 0.0964,-22.92846 42.85581,-32.3626 61.12936,-32.3626 m 143.83381,17.97922 -24.77136,53.93767 -11.33694,18.47865 -19.6273,1.74799 -17.97923,10.33805 c 3.33549,-7.78273 9.05984,-14.34354 6.34266,-23.37299 -1.68505,-5.59952 -7.54674,-10.19474 -7.49133,-16.1813 0.0954,-10.31907 5.95419,-16.94102 -1.49829,-26.91892 -5.75946,-7.71118 -17.05748,-7.46042 -20.72603,-16.23122 l 97.08782,-1.79793 m -172.60057,14.78293 c 11.43098,-1.46905 12.25608,12.99577 14.9827,21.17552 7.81253,23.43753 13.55483,48.9552 13.78406,73.71483 0.0792,8.55484 3.68463,26.0249 -7.19169,28.56705 -15.85435,3.70558 -57.92171,-1.53018 -69.22002,-14.63315 -14.04721,-16.29082 -11.2515,-53.81895 -8.19051,-73.26534 1.00486,-6.38403 1.68087,-15.80162 6.39258,-20.72605 7.60574,-7.94897 38.41442,-13.41561 49.44288,-14.83286 m -55.7356,17.57967 c -9.517,33.30878 -4.60026,58.59029 1.79792,91.69406 -21.37699,-2.24554 -55.35822,-6.56399 -68.8704,-25.17092 -32.39563,-44.61028 27.21564,-80.42301 67.07248,-66.52314 m 190.57979,44.94807 c -3.81898,15.67104 -19.90559,30.80392 -20.97575,46.74599 -0.61792,9.20503 11.3899,17.05622 16.68072,23.37299 11.27434,13.46049 22.14236,10.78754 38.45557,10.78754 21.10968,0 41.81749,-1.79792 62.92728,-1.79792 8.48451,0 17.20505,-2.87839 25.17099,0 -6.1631,13.838 -15.7546,12.94406 -28.76683,15.08263 -27.34689,4.49436 -58.56734,4.69452 -86.30029,4.69452 -11.6821,0 -24.6461,1.45027 -33.71105,-7.64118 -14.58014,-14.62282 -7.9695,-45.61195 -4.4948,-62.47781 1.53369,-7.4444 -1.51162,-15.25381 4.2451,-21.42517 6.6114,-7.08778 17.9283,-5.67008 26.76906,-7.34159 m -41.35222,43.15015 c 1.43717,13.68129 -0.0446,35.24911 8.04073,46.74598 13.81998,19.65107 36.55175,12.58546 56.68448,12.58546 25.59725,0 59.9969,2.5867 84.50238,-4.84443 11.30154,-3.42708 12.57513,-13.056 20.67618,-19.02797 8.67169,-6.39269 31.81276,-3.09644 42.25114,-3.09644 0,19.89698 0.31607,39.59698 -1.64816,59.33145 -0.71916,7.225 1.89591,16.4876 -2.84665,22.6737 -14.2302,18.5613 -49.5534,21.4893 -71.01798,24.2222 -62.10909,7.9075 -121.33383,3.7066 -183.38811,3.4459 l -10.78753,-98.88571 c 27.85769,0 16.45356,-13.45917 30.01535,-29.66572 4.90494,-5.86146 20.44747,-9.85994 27.51817,-13.48442 M 594.3246,1054.7973 c -20.31123,-0.3414 -54.52038,-5.9532 -67.47202,-23.4229 -6.37151,-8.5942 -5.25001,-20.4897 -6.64235,-30.5148 -3.32107,-23.91187 -8.59006,-47.70945 -8.59006,-71.91687 l 46.54622,12.4856 9.33922,11.78635 16.13132,5.09407 3.64583,28.1675 z"
       id="path1" />
    <text
       xml:space="preserve"
       style="font-size:40px;font-family:Cantarell;-inkscape-font-specification:Cantarell;text-align:start;writing-mode:lr-tb;direction:ltr;text-anchor:start;fill:#c2c8d5;fill-opacity:1;stroke:#c2c8d5;stroke-width:2.3;stroke-linecap:round;stroke-dasharray:none;stroke-opacity:1;paint-order:stroke markers fill"
       x="812.22894"
       y="820.30164"
       id="text6"><tspan
         id="tspan6"
         sodipodi:role="line"></tspan></text>
    <text
       xml:space="preserve"
       style="font-size:178.044px;font-family:Cantarell;-inkscape-font-specification:Cantarell;text-align:start;writing-mode:lr-tb;direction:ltr;text-anchor:start;fill:#2a315a;fill-opacity:1;stroke:#000000;stroke-width:5.68754;stroke-linecap:round;stroke-dasharray:none;stroke-opacity:0;paint-order:stroke markers fill"
       x="1006.9199"
       y="633.51038"
       id="text7"
       transform="rotate(14.906318)"><tspan
         sodipodi:role="line"
         id="tspan7"
         x="1006.9199"
         y="633.51038"
         style="font-style:normal;font-variant:normal;font-weight:normal;font-stretch:normal;font-family:'Droid Sans Mono';-inkscape-font-specification:'Droid Sans Mono';fill:#2a315a;fill-opacity:1;stroke:#000000;stroke-width:5.68754;stroke-opacity:0">C</tspan></text>
  </g>
</svg>
