<?xml version="1.0" encoding="UTF-8" standalone="no"?>
<!-- Created with Inkscape (http://www.inkscape.org/) -->

<svg
   width="170mm"
   height="170mm"
   viewBox="0 0 169.99999 170.00002"
   version="1.1"
   id="svg1"
   inkscape:version="1.4 (e7c3feb100, 2024-10-09)"
   sodipodi:docname="favicon.svg"
   xmlns:inkscape="http://www.inkscape.org/namespaces/inkscape"
   xmlns:sodipodi="http://sodipodi.sourceforge.net/DTD/sodipodi-0.dtd"
   xmlns="http://www.w3.org/2000/svg"
   xmlns:svg="http://www.w3.org/2000/svg">
  <sodipodi:namedview
     id="namedview1"
     pagecolor="#243445"
     bordercolor="#000000"
     borderopacity="0.25"
     inkscape:showpageshadow="2"
     inkscape:pageopacity="0.0"
     inkscape:pagecheckerboard="0"
     inkscape:deskcolor="#d1d1d1"
     inkscape:document-units="mm"
     inkscape:zoom="0.50867705"
     inkscape:cx="176.92955"
     inkscape:cy="299.79729"
     inkscape:window-width="1440"
     inkscape:window-height="831"
     inkscape:window-x="0"
     inkscape:window-y="0"
     inkscape:window-maximized="1"
     inkscape:current-layer="layer1"
     inkscape:export-bgcolor="#243445ff" />
  <defs
     id="defs1">
    <linearGradient
       id="gradient_0"
       gradientUnits="userSpaceOnUse"
       x1="719.58051"
       y1="403.9321"
       x2="682.27814"
       y2="470.0192"
       gradientTransform="matrix(0.26458333,0,0,0.26458333,-50.289527,4.8449781)">
      <stop
         offset="0"
         stop-color="#66B7F1"
         id="stop29" />
      <stop
         offset="1"
         stop-color="#7BCDF1"
         id="stop30" />
    </linearGradient>
    <linearGradient
       id="gradient_1"
       gradientUnits="userSpaceOnUse"
       x1="660.02576"
       y1="427.27713"
       x2="661.09857"
       y2="450.40265"
       gradientTransform="matrix(0.26458333,0,0,0.26458333,-50.289527,4.8449781)">
      <stop
         offset="0"
         stop-color="#0460B8"
         id="stop35" />
      <stop
         offset="1"
         stop-color="#1B8DDD"
         id="stop36" />
    </linearGradient>
  </defs>
  <g
     inkscape:label="Calque 1"
     inkscape:groupmode="layer"
     id="layer1"
     transform="translate(-58.700908,-69.104507)">
    <g
       id="g1"
       transform="translate(29.101998,65.255038)"
       style="stroke:#243445;stroke-opacity:1">
      <path
         fill="#71bbf1"
         d="m 48.491336,50.397496 c -0.71755,-1.980936 -5.792523,-20.047929 -5.709708,-20.884012 0.21246,-0.348562 0.241565,-0.367083 0.614363,-0.536496 0.219604,0.02884 0.351631,0.01331 0.537104,0.150919 0.42836,0.31832 0.623093,0.813937 0.791368,1.304025 0.751946,2.189533 1.176073,4.57581 1.802871,6.817095 l 2.099204,7.339542 c 0.443442,1.552839 1.017852,3.204369 1.172634,4.815152 q -0.640557,0.51435 -1.307836,0.993775 z"
         id="path2"
         style="stroke:#243445;stroke-width:1.19062;stroke-linejoin:miter;stroke-dasharray:none;stroke-opacity:1;paint-order:stroke markers fill" />
      <path
         fill="#e2e2e2"
         d="m 115.86721,40.167117 q -0.26035,-0.139171 -0.52572,-0.268552 -0.26565,-0.129381 -0.53578,-0.248709 -0.27014,-0.119327 -0.54452,-0.2286 -0.27437,-0.109008 -0.55271,-0.207697 -0.27834,-0.09869 -0.56012,-0.187061 -0.28179,-0.08811 -0.56674,-0.165894 -0.28496,-0.07752 -0.57256,-0.144198 -0.2876,-0.06694 -0.57759,-0.123031 -0.28998,-0.05583 -0.58181,-0.101071 -0.29184,-0.04498 -0.585,-0.07911 -0.29342,-0.03413 -0.5879,-0.05715 -0.29422,-0.02302 -0.58923,-0.03519 -0.29527,-0.01191 -0.59055,-0.01296 -0.29527,-7.94e-4 -0.59028,0.0093 -0.29528,0.01032 -0.58976,0.03149 -0.29448,0.02117 -0.58817,0.05345 -0.29342,0.03228 -0.58552,0.07541 -0.2921,0.04339 -0.58235,0.09763 -0.29051,0.05424 -0.57838,0.119062 -0.28813,0.06509 -0.57362,0.141023 -0.28522,0.07567 -0.56779,0.16219 -0.28231,0.08652 -0.56118,0.183356 -0.27887,0.0971 -0.55404,0.204523 -0.27517,0.107421 -0.54584,0.224896 -0.27093,0.11774 -0.5371,0.245269 -0.26644,0.127793 -0.52758,0.265377 -0.26141,0.137583 -0.51726,0.284956 -0.25585,0.147373 -0.50615,0.304271 -0.250287,0.156898 -0.494237,0.322791 -0.24421,0.166159 -0.48207,0.341313 -0.2376,0.175154 -0.46858,0.35904 -0.23124,0.183885 -0.45508,0.376502 c -2.11455,0.694002 -3.88197,3.769783 -4.83579,5.625835 q -0.19235,0.376502 -0.36592,0.761735 -0.1733,0.385498 -0.32755,0.779198 -0.15426,0.393436 -0.28893,0.794279 -0.13441,0.40058 -0.24897,0.807509 -0.11457,0.406929 -0.20902,0.818885 -0.0942,0.411956 -0.16828,0.828146 -0.0738,0.41619 -0.127,0.835554 -0.0532,0.419365 -0.0855,0.840846 -0.0323,0.421481 -0.0436,0.844021 -0.0117,0.422539 -0.002,0.845079 0.009,0.42254 0.0397,0.844285 0.0304,0.421482 0.0815,0.841111 0.0511,0.419629 0.12277,0.836083 0.072,0.416454 0.1643,0.82894 0.0923,0.412485 0.20479,0.819943 0.11271,0.407459 0.24527,0.808832 c 1.51209,4.552156 4.33969,8.640497 8.716957,10.8331 3.61156,1.80922 7.35727,1.8669 11.1506,0.567266 4.97258,-1.703387 8.60954,-4.860396 10.88813,-9.580827 l 0.54796,-1.130829 c 0.93053,3.215746 0.98292,7.396162 1.14935,10.75399 l -1.59412,0.921808 q -6.37593,3.741737 -13.01644,6.991085 -6.64025,3.249613 -13.506977,5.988315 c -0.83317,0.332581 -2.90169,1.399645 -3.72719,1.234545 -0.0365,-0.0074 -0.0704,-0.02434 -0.10556,-0.03625 l 0.0259,-0.170128 c 0.62309,-0.991129 5.65626,-2.663031 7.0432,-3.232943 7.922687,-3.255434 15.420447,-7.339542 23.188617,-10.914327 l 0.12541,-0.248708 c -1.7108,0.05398 -8.69553,2.150797 -10.78098,2.723091 -3.62902,0.995363 -7.29721,1.8542 -10.91433,2.889515 l -11.776597,3.379787 c -3.74465,1.111515 -23.082514,7.245615 -25.356872,7.005638 -0.02778,-0.04789 -0.05636,-0.09525 -0.08361,-0.143669 -0.811212,-1.449917 -1.283758,-3.180027 -1.843616,-4.746361 q -1.402821,-3.99071 -2.891102,-7.950199 L 52.888976,58.518617 c -0.79084,-2.10529 -1.914261,-4.306623 -2.456392,-6.466417 l -0.145785,-0.07408 c 0.07144,1.032404 1.445419,4.246827 1.833827,5.521589 1.125008,3.694377 2.157148,7.417329 3.309408,11.10324 q 2.081477,6.441281 4.282546,12.84261 c 0.93689,2.7432 1.774031,5.6134 2.867289,8.292571 -0.01244,0.341841 0.02302,0.41222 -0.233097,0.6604 -1.320007,1.278995 -3.390636,2.328333 -4.940036,3.334279 -2.229379,1.447535 -4.45135,3.046941 -6.761162,4.35689 -0.277284,0.1741 -0.558006,0.34317 -0.825236,0.53208 -0.338666,0.11536 -0.605895,0.17674 -0.967845,0.20346 -0.715434,-0.68315 -1.595438,-4.515374 -2.068248,-5.725578 -0.749036,-2.871526 -1.904471,-5.678755 -2.871788,-8.484926 -1.159933,-3.364971 -2.20636,-6.771746 -3.443816,-10.109729 -1.208882,-3.550179 -2.646363,-7.026275 -3.818732,-10.587302 1.321065,-3.970602 8.503444,-10.629371 11.841427,-13.520208 q 0.667279,-0.479425 1.307836,-0.993775 C 60.282228,42.527729 72.483753,36.7741 84.895623,34.576736 c 4.15607,-0.735542 8.39152,-1.005417 12.60528,-1.123686 5.086877,-0.142875 10.353937,0.07302 15.391337,0.812536 0.95594,1.381125 2.87655,4.283075 2.97497,5.901531 z M 72.535343,50.441946 c -1.79996,-0.352954 -5.815009,1.394089 -7.361234,2.421202 -3.306498,2.196835 -5.495131,6.252633 -6.233848,10.082477 -0.840052,4.354512 0.324909,9.099285 2.831836,12.731485 2.439722,3.535363 6.446046,6.442075 10.716416,7.201429 4.49369,0.798777 8.93789,-0.509323 12.61216,-3.124464 3.20172,-2.278592 5.81395,-5.592498 6.46721,-9.550665 0.28813,-1.746779 0.21564,-4.033043 -0.45323,-5.684573 q -0.007,-0.208491 -0.0196,-0.416718 -0.0124,-0.208227 -0.031,-0.415925 -0.0182,-0.207698 -0.0426,-0.414867 -0.0241,-0.207169 -0.054,-0.413544 -0.0299,-0.206375 -0.0656,-0.411956 -0.0354,-0.205581 -0.077,-0.40984 -0.0413,-0.204523 -0.0884,-0.407723 -0.0468,-0.2032 -0.0995,-0.405077 -0.0527,-0.201612 -0.11086,-0.401902 -0.0582,-0.200289 -0.12198,-0.398991 -0.0638,-0.198438 -0.13308,-0.395288 -0.0693,-0.196585 -0.14394,-0.391319 -0.0749,-0.194733 -0.15478,-0.38735 -0.0802,-0.192616 -0.16563,-0.382852 -0.0855,-0.190235 -0.17594,-0.378089 -0.0908,-0.187854 -0.18654,-0.373063 -0.096,-0.185208 -0.19685,-0.367771 -0.10107,-0.182562 -0.20716,-0.362214 -0.10584,-0.179652 -0.21696,-0.356129 -0.11086,-0.176742 -0.22675,-0.350044 -0.11589,-0.173567 -0.23627,-0.343694 -0.12065,-0.170127 -0.24607,-0.336814 -0.12514,-0.166688 -0.25505,-0.329936 -0.12991,-0.163248 -0.26432,-0.322791 -0.13441,-0.159544 -0.27305,-0.315119 -0.13864,-0.15584 -0.28178,-0.307711 -0.14314,-0.15187 -0.29025,-0.299508 -0.14711,-0.147902 -0.29845,-0.291306 -0.15108,-0.143669 -0.30639,-0.283104 -0.15505,-0.139436 -0.31406,-0.274373 -0.15901,-0.134938 -0.32173,-0.265642 -0.16272,-0.130439 -0.32888,-0.256381 -0.16616,-0.125942 -0.33602,-0.247121 -0.1696,-0.121444 -0.34264,-0.23786 -0.17277,-0.116682 -0.34898,-0.228336 -0.17621,-0.111654 -0.35534,-0.218281 -0.17938,-0.106627 -0.36142,-0.208492 -0.18203,-0.1016 -0.36698,-0.198173 -0.18467,-0.09657 -0.37226,-0.188118 -0.18733,-0.09128 -0.3773,-0.177536 -0.18997,-0.08625 -0.38232,-0.166952 -0.19209,-0.08096 -0.38656,-0.156369 -0.19447,-0.07567 -0.39079,-0.145785 -0.19658,-0.06985 -0.39476,-0.134408 -0.19843,-0.06456 -0.39846,-0.123561 -0.20002,-0.05927 -0.40164,-0.112712 -0.20161,-0.05345 -0.40454,-0.101071 -0.2032,-0.04789 -0.40746,-0.08996 -0.20426,-0.04233 -0.40958,-0.07885 -0.20531,-0.03625 -0.41169,-0.0672 -0.20611,-0.03069 -0.41328,-0.05556 -0.2069,-0.02513 -0.4146,-0.04418 -0.2077,-0.01932 -0.41593,-0.03281 -0.20822,-0.01349 -0.41645,-0.02117 -0.20849,-0.0077 -0.41698,-0.0095 -0.20876,-0.0019 -0.41725,0.0021 -0.20849,0.004 -0.41672,0.01376 -0.20849,0.0098 -0.41645,0.02513 -0.20797,0.01561 -0.4154,0.03704 -0.20743,0.02117 -0.41434,0.04815 -0.20664,0.02725 -0.41275,0.06006 -0.20584,0.03254 -0.4109,0.07117 -0.20505,0.03863 -0.40878,0.08281 -0.20399,0.04418 -0.4064,0.09393 z"
         id="path3"
         style="stroke:#243445;stroke-width:1.19062;stroke-linejoin:miter;stroke-dasharray:none;stroke-opacity:1;paint-order:stroke markers fill" />
      <path
         d="m 98.191993,42.109688 q 0.22384,-0.192617 0.45508,-0.376502 0.23098,-0.183886 0.46858,-0.35904 0.23786,-0.175154 0.48207,-0.341313 0.24421,-0.165893 0.494237,-0.322791 0.2503,-0.156898 0.50615,-0.304271 0.25585,-0.147373 0.51726,-0.284956 0.26114,-0.137584 0.52758,-0.265377 0.26617,-0.127529 0.5371,-0.245269 0.27067,-0.117475 0.54584,-0.224896 0.27517,-0.107421 0.55404,-0.204523 0.27887,-0.09684 0.56118,-0.183356 0.28257,-0.08652 0.56779,-0.16219 0.28549,-0.07594 0.57362,-0.141023 0.28787,-0.06509 0.57838,-0.119062 0.29025,-0.05424 0.58235,-0.09763 0.2921,-0.04313 0.58552,-0.07541 0.29369,-0.03228 0.58817,-0.05345 0.29448,-0.02117 0.58976,-0.03149 0.29501,-0.01005 0.59028,-0.0093 0.29528,0.0011 0.59055,0.01296 0.29501,0.01217 0.58923,0.03519 0.29448,0.02302 0.5879,0.05715 0.29316,0.03413 0.585,0.07911 0.29183,0.04524 0.58181,0.101071 0.28999,0.05609 0.57759,0.123031 0.2876,0.06668 0.57256,0.144198 0.28495,0.07779 0.56674,0.165894 0.28178,0.08837 0.56012,0.187061 0.27834,0.09869 0.55271,0.207697 0.27438,0.109273 0.54452,0.2286 0.27013,0.119328 0.53551,0.248709 0.26564,0.129381 0.52599,0.268552 0.31697,0.169333 0.62574,0.353219 0.30877,0.18362 0.60881,0.381264 0.30004,0.197644 0.59055,0.408781 0.29078,0.210873 0.5715,0.43524 0.28099,0.224102 0.55113,0.460904 0.27014,0.236538 0.52943,0.485511 0.25902,0.248708 0.50667,0.509058 0.24765,0.26035 0.48287,0.531812 0.23548,0.271463 0.45826,0.553244 0.22278,0.282046 0.43233,0.573881 0.20981,0.291571 0.40587,0.592667 0.19605,0.301096 0.37835,0.610658 0.1823,0.309563 0.35005,0.627327 0.16774,0.317765 0.32094,0.642673 0.15319,0.324909 0.29157,0.656696 0.13811,0.331523 0.26088,0.669131 0.12303,0.337609 0.23045,0.680509 0.10742,0.3429 0.19896,0.690298 0.0916,0.347398 0.16722,0.6985 0.0757,0.351366 0.1352,0.705643 0.0595,0.354277 0.10293,0.710936 0.0434,0.356658 0.0704,0.714904 0.027,0.358246 0.0376,0.717285 0.0106,0.359304 0.005,0.718344 -0.006,0.359304 -0.0281,0.717815 -0.0222,0.358775 -0.0606,0.715962 -0.0386,0.357188 -0.0934,0.712258 -0.0548,0.355071 -0.12567,0.707232 -0.0712,0.35216 -0.15796,0.700881 -0.0871,0.348456 -0.1897,0.692679 -0.10293,0.344488 -0.2212,0.683683 -0.11827,0.339196 -0.25214,0.672571 -0.1106,0.275432 -0.23125,0.546629 -0.12065,0.270934 -0.25162,0.537369 -0.13097,0.266171 -0.27173,0.527579 -0.14102,0.261144 -0.29157,0.516732 -0.15054,0.255852 -0.31088,0.505618 -0.16008,0.249767 -0.32941,0.493448 -0.1696,0.243681 -0.34793,0.480748 -0.17859,0.237067 -0.36591,0.467254 -0.18733,0.230188 -0.38339,0.452967 -0.19579,0.223044 -0.40005,0.438415 -0.20399,0.21537 -0.41619,0.423068 -0.21219,0.207434 -0.4318,0.406929 -0.21986,0.199232 -0.44714,0.390261 -0.22701,0.191029 -0.46117,0.373327 -0.23442,0.182033 -0.47519,0.355335 -0.24104,0.173302 -0.48816,0.337609 -0.24738,0.164041 -0.50059,0.318558 -0.25321,0.154781 -0.51223,0.299773 -0.25903,0.144992 -0.52308,0.279929 -0.26432,0.135202 -0.5334,0.26035 -0.26908,0.125148 -0.54293,0.239977 -0.27358,0.114829 -0.55139,0.219075 -0.27781,0.104511 -0.55933,0.198438 -0.28152,0.09366 -0.56621,0.177006 -0.28495,0.08308 -0.57282,0.155575 -0.28787,0.07223 -0.57812,0.133879 -0.29024,0.06138 -0.58287,0.111919 -0.29237,0.05053 -0.58632,0.08996 -0.29422,0.03942 -0.58976,0.06773 -0.29527,0.02831 -0.5916,0.04551 -0.29634,0.0172 -0.59293,0.02302 -0.29687,0.0061 -0.59347,7.93e-4 -0.29686,-0.0053 -0.59293,-0.0217 -0.29633,-0.0164 -0.59187,-0.04392 -0.29554,-0.02752 -0.58976,-0.06641 -0.29421,-0.03863 -0.58684,-0.08837 -0.29263,-0.04974 -0.58288,-0.110595 -0.29051,-0.06059 -0.57864,-0.132292 -0.28787,-0.0717 -0.57309,-0.154252 -0.28496,-0.08255 -0.56674,-0.175684 -0.28178,-0.09313 -0.55986,-0.19685 -0.27807,-0.103716 -0.55192,-0.217752 -0.2741,-0.1143 -0.54345,-0.238654 -0.26935,-0.124354 -0.53393,-0.258762 -0.26458,-0.134409 -0.52387,-0.278871 -0.2593,-0.144463 -0.51303,-0.29845 -0.25374,-0.153988 -0.501387,-0.3175 -0.24765,-0.163513 -0.48895,-0.336021 -0.2413,-0.172773 -0.47598,-0.354542 -0.23469,-0.181504 -0.46223,-0.372004 -0.22781,-0.1905 -0.44794,-0.389202 -0.2204,-0.198966 -0.43312,-0.405871 -0.21246,-0.207168 -0.41725,-0.42201 -0.20479,-0.214842 -0.40111,-0.437356 -0.19632,-0.22225 -0.38444,-0.452173 -0.18785,-0.229659 -0.36698,-0.466196 -0.17912,-0.236538 -0.34925,-0.479954 -0.16986,-0.243152 -0.33072,-0.492654 -0.16087,-0.249238 -0.31195,-0.504561 -0.15134,-0.255323 -0.29289,-0.516202 -0.14155,-0.260879 -0.27305,-0.52705 -0.1315,-0.265906 -0.25294,-0.536575 -0.12145,-0.270933 -0.23257,-0.5461 -0.11113,-0.275166 -0.21193,-0.554302 -0.10081,-0.279135 -0.19077,-0.561975 -0.0902,-0.282839 -0.16933,-0.568589 -0.0796,-0.286015 -0.14817,-0.574675 -0.0685,-0.288925 -0.12594,-0.579967 -0.0577,-0.291042 -0.10425,-0.5842 -0.0466,-0.293158 -0.082,-0.58764 -0.0354,-0.294746 -0.0598,-0.59055 -0.0243,-0.295804 -0.0376,-0.592137 -0.0132,-0.296598 -0.0151,-0.593461 -0.002,-0.296598 0.007,-0.593195 0.009,-0.296598 0.0296,-0.592667 0.0204,-0.296069 0.0519,-0.591344 0.0315,-0.29501 0.0741,-0.588698 0.0426,-0.293687 0.0963,-0.585523 0.0537,-0.291835 0.11827,-0.581554 0.0648,-0.289719 0.14023,-0.576527 0.0757,-0.287073 0.16193,-0.570971 0.0862,-0.283898 0.18335,-0.564621 0.0968,-0.280458 0.20426,-0.556947 0.10742,-0.276755 0.22516,-0.549011 0.118,-0.272521 0.2458,-0.540279 0.12806,-0.267758 0.26617,-0.53049 0.13785,-0.262731 0.28575,-0.519906 0.14764,-0.257439 0.30506,-0.509058 0.15743,-0.251619 0.32438,-0.496888 0.16669,-0.245533 0.34264,-0.484716 0.17595,-0.238919 0.36063,-0.470959 0.18494,-0.232304 0.37835,-0.457464 0.19341,-0.224896 0.39529,-0.442648 0.20161,-0.217488 0.41142,-0.427302 0.20982,-0.210079 0.42757,-0.411692 0.21749,-0.201877 0.44265,-0.395287 z m 2.818077,6.918854 c -0.79693,0.681302 -1.156497,1.321329 -1.261007,2.379133 -0.11853,1.201738 0.19659,2.710127 0.996157,3.645958 0.38761,0.453761 0.93345,0.803275 1.54464,0.810948 0.31326,0.0037 0.6096,-0.08811 0.90514,-0.181504 0.80645,-0.557477 1.27132,-1.1557 1.44965,-2.140744 0.20135,-1.113102 -0.0947,-2.372518 -0.77259,-3.278452 -0.4527,-0.605102 -1.15623,-1.144852 -1.92405,-1.244335 -0.30744,-0.03995 -0.6297,-0.01111 -0.93794,0.009 z"
         id="path4"
         style="stroke:#243445;stroke-width:1.19062;stroke-linejoin:miter;stroke-dasharray:none;stroke-opacity:1;paint-order:stroke markers fill" />
      <path
         fill="#71bbf1"
         d="m 123.65126,61.558679 -0.54796,1.130829 c -2.27859,4.720431 -5.91555,7.87744 -10.88813,9.580827 -3.79333,1.299634 -7.53904,1.241954 -11.1506,-0.567266 -4.377267,-2.192603 -7.204867,-6.280944 -8.716957,-10.8331 q -0.13256,-0.401373 -0.24527,-0.808832 -0.11245,-0.407458 -0.20479,-0.819943 -0.0923,-0.412486 -0.1643,-0.82894 -0.0717,-0.416454 -0.12277,-0.836083 -0.0511,-0.419629 -0.0815,-0.841111 -0.0304,-0.421745 -0.0397,-0.844285 -0.01,-0.42254 0.002,-0.845079 0.0114,-0.42254 0.0436,-0.844021 0.0326,-0.421481 0.0857,-0.840846 0.0529,-0.419364 0.12673,-0.835554 0.0741,-0.41619 0.16828,-0.828146 0.0944,-0.411956 0.20902,-0.818885 0.11456,-0.406929 0.24897,-0.807509 0.13467,-0.400843 0.28893,-0.794279 0.15425,-0.3937 0.32755,-0.779198 0.17357,-0.385233 0.36592,-0.761735 c 0.95382,-1.856052 2.72124,-4.931833 4.83579,-5.625835 q -0.22516,0.19341 -0.44265,0.395287 -0.21775,0.201613 -0.42757,0.411692 -0.20981,0.209814 -0.41142,0.427302 -0.20188,0.217752 -0.39529,0.442648 -0.19341,0.22516 -0.37835,0.457464 -0.18468,0.23204 -0.36063,0.471223 -0.17595,0.238919 -0.34264,0.484452 -0.16695,0.245269 -0.32438,0.496888 -0.15716,0.251619 -0.30506,0.509058 -0.1479,0.257175 -0.28575,0.519906 -0.13811,0.262732 -0.26617,0.53049 -0.1278,0.267758 -0.2458,0.540279 -0.11774,0.272256 -0.22516,0.549011 -0.10742,0.276489 -0.20452,0.556947 -0.0968,0.280723 -0.18309,0.564621 -0.0863,0.283898 -0.16193,0.570971 -0.0754,0.286808 -0.14023,0.576527 -0.0646,0.289719 -0.11827,0.581554 -0.0537,0.291836 -0.0963,0.585523 -0.0426,0.293688 -0.0741,0.588698 -0.0315,0.295275 -0.0519,0.591344 -0.0204,0.296069 -0.0296,0.592667 -0.009,0.296597 -0.007,0.59346 0.002,0.296598 0.0151,0.593196 0.0132,0.296333 0.0376,0.592137 0.0243,0.295804 0.0598,0.59055 0.0355,0.294482 0.082,0.58764 0.0466,0.293158 0.10425,0.5842 0.0574,0.291042 0.12594,0.579967 0.0685,0.28866 0.14817,0.574675 0.0791,0.28575 0.16933,0.568589 0.09,0.28284 0.19077,0.561975 0.1008,0.279136 0.21193,0.554302 0.11112,0.275167 0.23257,0.5461 0.12144,0.270669 0.25294,0.536575 0.1315,0.266171 0.27305,0.52705 0.14155,0.260879 0.29289,0.516202 0.15108,0.255323 0.31195,0.504561 0.16086,0.249502 0.33072,0.492654 0.17013,0.243416 0.34925,0.479954 0.17913,0.236537 0.36698,0.466196 0.18786,0.229923 0.38444,0.452173 0.19632,0.222514 0.40111,0.437356 0.20479,0.214842 0.41725,0.42201 0.21272,0.206905 0.43312,0.405871 0.22013,0.198702 0.44794,0.389202 0.22754,0.1905 0.46223,0.372004 0.23468,0.181769 0.47598,0.354542 0.2413,0.172508 0.48895,0.336021 0.247647,0.163512 0.501387,0.3175 0.25373,0.153987 0.51303,0.29845 0.25929,0.144462 0.52387,0.278871 0.26458,0.134408 0.53393,0.258762 0.26935,0.124354 0.54345,0.238654 0.27385,0.114036 0.55192,0.217752 0.27808,0.103717 0.55986,0.19685 0.28178,0.09313 0.56674,0.175684 0.28522,0.08255 0.57309,0.154252 0.28813,0.0717 0.57864,0.132292 0.29025,0.06085 0.58288,0.110595 0.29263,0.04974 0.58684,0.08864 0.29422,0.03863 0.58976,0.06615 0.29554,0.02752 0.59187,0.04392 0.29607,0.0164 0.59293,0.0217 0.2966,0.0053 0.59347,-7.93e-4 0.29659,-0.0058 0.59293,-0.02302 0.29633,-0.0172 0.5916,-0.04551 0.29554,-0.02831 0.58976,-0.06773 0.29395,-0.03942 0.58632,-0.08996 0.29263,-0.05054 0.58287,-0.111919 0.29025,-0.06165 0.57812,-0.133879 0.28787,-0.0725 0.57282,-0.155575 0.28469,-0.08334 0.56621,-0.177006 0.28152,-0.09393 0.55933,-0.198438 0.27781,-0.104246 0.55139,-0.219075 0.27385,-0.114829 0.54293,-0.239977 0.26908,-0.125148 0.5334,-0.26035 0.26405,-0.134937 0.52308,-0.279929 0.25902,-0.144992 0.51223,-0.299773 0.25321,-0.154517 0.50059,-0.318558 0.24712,-0.164307 0.48816,-0.337609 0.24077,-0.173302 0.47519,-0.355335 0.23416,-0.182298 0.46117,-0.373327 0.22728,-0.191029 0.44714,-0.390261 0.21961,-0.199495 0.4318,-0.406929 0.2122,-0.207698 0.41619,-0.423068 0.20426,-0.215371 0.40005,-0.438415 0.19606,-0.222779 0.38339,-0.452967 0.18732,-0.230187 0.36591,-0.467254 0.17833,-0.237067 0.34793,-0.480748 0.16933,-0.243681 0.32941,-0.493448 0.16034,-0.249766 0.31088,-0.505618 0.15055,-0.255588 0.29157,-0.516732 0.14076,-0.261408 0.27173,-0.527579 0.13097,-0.266435 0.25162,-0.537369 0.12065,-0.271197 0.23125,-0.546629 c 0.30321,0.525463 0.43867,1.080294 0.60034,1.659996 z"
         id="path5"
         style="stroke:#243445;stroke-width:1.19062;stroke-linejoin:miter;stroke-dasharray:none;stroke-opacity:1;paint-order:stroke markers fill" />
      <path
         fill="#83d1ed"
         d="m 103.195,55.683077 c -0.29554,0.0934 -0.59188,0.185208 -0.90514,0.181504 -0.61119,-0.0077 -1.15703,-0.357187 -1.54464,-0.810948 -0.799567,-0.935831 -1.114687,-2.44422 -0.996157,-3.645958 0.10451,-1.057804 0.464077,-1.697831 1.261007,-2.379133 0.30824,-0.02011 0.6305,-0.04895 0.93794,-0.009 0.76782,0.09948 1.47135,0.639233 1.92405,1.244335 0.67787,0.905934 0.97394,2.16535 0.77259,3.278452 -0.17833,0.985044 -0.6432,1.583267 -1.44965,2.140744 z"
         id="path6"
         style="stroke:#243445;stroke-width:1.19062;stroke-linejoin:miter;stroke-dasharray:none;stroke-opacity:1;paint-order:stroke markers fill" />
      <path
         d="m 72.535343,50.441946 q 0.20241,-0.04974 0.4064,-0.09393 0.20373,-0.04419 0.40878,-0.08281 0.20506,-0.03863 0.4109,-0.07117 0.20611,-0.03281 0.41275,-0.06006 0.20691,-0.02699 0.41434,-0.04815 0.20743,-0.02143 0.4154,-0.03704 0.20796,-0.01535 0.41645,-0.02513 0.20823,-0.0098 0.41672,-0.01376 0.20849,-0.004 0.41725,-0.0021 0.20849,0.0019 0.41698,0.0095 0.20823,0.0077 0.41645,0.02117 0.20823,0.01349 0.41593,0.03281 0.2077,0.01905 0.4146,0.04418 0.20717,0.02487 0.41355,0.05556 0.20611,0.03096 0.41142,0.0672 0.20532,0.03651 0.40958,0.07885 0.20426,0.04207 0.40746,0.08996 0.20293,0.04763 0.40454,0.101071 0.20162,0.05345 0.40164,0.112712 0.20003,0.059 0.39846,0.123561 0.19818,0.06456 0.39476,0.134408 0.19632,0.07012 0.39079,0.145785 0.19447,0.07541 0.38656,0.156369 0.19235,0.0807 0.38232,0.166952 0.18997,0.08625 0.3773,0.177536 0.18759,0.09154 0.37226,0.188118 0.18495,0.09657 0.36698,0.198173 0.18204,0.101865 0.36142,0.208492 0.17913,0.106627 0.35534,0.218281 0.17621,0.111654 0.34898,0.228336 0.17304,0.116416 0.34264,0.23786 0.16986,0.121179 0.33602,0.247121 0.16616,0.125942 0.32888,0.256381 0.16272,0.130704 0.32173,0.265642 0.15901,0.134937 0.31406,0.274373 0.15531,0.139435 0.30639,0.283104 0.15134,0.143404 0.29845,0.291306 0.14711,0.147638 0.29025,0.299508 0.14314,0.151871 0.28178,0.307711 0.13864,0.155575 0.27305,0.315119 0.13441,0.159543 0.26432,0.322791 0.12991,0.163248 0.25505,0.329936 0.12542,0.166687 0.24607,0.336814 0.12038,0.170127 0.23627,0.343694 0.11589,0.173302 0.22675,0.350044 0.11112,0.176477 0.21696,0.356129 0.10609,0.179652 0.20716,0.362214 0.10081,0.182563 0.19685,0.367771 0.0958,0.185209 0.18654,0.373063 0.0905,0.187854 0.17594,0.378089 0.0855,0.190236 0.16563,0.382852 0.0799,0.192617 0.15478,0.38735 0.0746,0.194734 0.14394,0.391319 0.0693,0.19685 0.13308,0.395288 0.0638,0.198702 0.12198,0.398991 0.0582,0.20029 0.11086,0.401902 0.0526,0.201877 0.0995,0.405077 0.0471,0.2032 0.0884,0.407723 0.0415,0.204259 0.077,0.40984 0.0357,0.205581 0.0656,0.411956 0.0299,0.206375 0.054,0.413544 0.0243,0.207169 0.0426,0.414867 0.0185,0.207698 0.031,0.415925 0.0127,0.208227 0.0196,0.416718 0.0114,0.351896 0.007,0.703792 -0.005,0.351896 -0.0264,0.703263 -0.0217,0.351366 -0.0595,0.701145 -0.0378,0.350044 -0.0923,0.697707 -0.0542,0.347927 -0.12488,0.692679 -0.0704,0.344752 -0.15716,0.686064 -0.0868,0.341048 -0.18918,0.677863 -0.10266,0.33655 -0.22093,0.668073 -0.11826,0.331523 -0.25188,0.657225 -0.13361,0.325702 -0.28231,0.644525 -0.14896,0.319087 -0.31247,0.630766 -0.16351,0.31168 -0.34158,0.615157 -0.17806,0.303741 -0.37015,0.598752 -0.19209,0.29501 -0.39767,0.580495 -0.20558,0.28575 -0.42439,0.561446 -0.21908,0.275432 -0.45059,0.540544 -0.23151,0.265113 -0.47519,0.519113 -0.24368,0.254 -0.499,0.496358 -0.25533,0.242094 -0.52176,0.472281 -0.26644,0.229923 -0.54346,0.447146 -0.27701,0.217223 -0.56382,0.421217 -0.28681,0.203993 -0.58288,0.394493 -0.29607,0.190236 -0.6006,0.366448 -0.3048,0.176477 -0.61728,0.338138 -0.31273,0.161925 -0.63262,0.308769 -0.31961,0.146843 -0.64611,0.278606 -0.32649,0.131762 -0.65855,0.248179 -0.33231,0.116417 -0.66966,0.216958 -0.33707,0.100542 -0.67892,0.185209 -0.34157,0.08467 -0.68685,0.153458 -0.34502,0.06853 -0.69321,0.120915 -0.34819,0.05212 -0.69824,0.08811 -0.35004,0.03598 -0.70167,0.0553 -0.35137,0.01958 -0.70327,0.02249 -0.35189,0.0029 -0.70379,-0.01058 -0.35163,-0.01349 -0.70247,-0.04366 -0.35057,-0.0299 -0.69955,-0.07646 -0.34873,-0.0463 -0.69533,-0.109008 -0.34607,-0.06271 -0.68924,-0.141817 -0.3429,-0.07885 -0.68183,-0.173831 -0.33893,-0.09499 -0.6731,-0.205581 -0.33417,-0.110861 -0.66278,-0.237067 -0.32861,-0.126206 -0.65088,-0.267758 -0.32226,-0.141552 -0.63738,-0.297921 -0.31538,-0.156634 -0.62283,-0.327554 -0.30771,-0.171186 -0.60695,-0.356659 -0.29925,-0.185208 -0.58949,-0.384439 -0.29025,-0.199232 -0.570709,-0.411692 -0.280459,-0.212725 -0.550863,-0.43815 -0.270139,-0.225425 -0.529696,-0.463285 -0.259291,-0.237861 -0.507206,-0.487892 -0.247915,-0.249767 -0.483923,-0.51091 -0.236008,-0.261144 -0.459581,-0.533136 -0.223308,-0.271992 -0.433917,-0.554037 -0.210344,-0.282046 -0.407458,-0.573882 -0.19685,-0.29157 -0.379942,-0.592137 -0.183091,-0.300831 -0.351896,-0.6096 -0.168804,-0.308769 -0.323056,-0.62521 -0.153987,-0.316442 -0.293158,-0.639763 -0.139171,-0.323321 -0.262996,-0.652992 -0.123825,-0.329406 -0.23204,-0.664368 -0.108214,-0.334963 -0.200554,-0.674423 -0.09234,-0.339725 -0.168804,-0.683419 -0.07646,-0.343429 -0.136525,-0.690298 -0.06006,-0.346869 -0.103981,-0.696119 -0.04392,-0.34925 -0.07117,-0.700087 -0.02752,-0.350838 -0.03836,-0.702733 -0.01085,-0.351896 -0.0053,-0.703792 0.0056,-0.351896 0.02752,-0.703263 0.02223,-0.351102 0.06086,-0.701145 0.03836,-0.34978 0.0934,-0.697442 0.05477,-0.347663 0.125942,-0.692415 0.07117,-0.344752 0.158486,-0.6858 0.08731,-0.340783 0.190235,-0.677333 0.103187,-0.33655 0.221985,-0.667808 0.118798,-0.331523 0.252942,-0.656961 0.134408,-0.325173 0.283633,-0.643996 0.149225,-0.318822 0.313532,-0.630237 0.164041,-0.31115 0.342635,-0.614627 0.178594,-0.303213 0.370946,-0.597958 0.192616,-0.294746 0.398727,-0.579967 0.20611,-0.285221 0.42545,-0.560652 0.219339,-0.275167 0.451379,-0.540015 0.23204,-0.264583 0.47625,-0.518054 0.243946,-0.253735 0.499798,-0.4953 0.255852,-0.241829 0.522552,-0.471487 0.266965,-0.229659 0.544248,-0.446352 0.277283,-0.216694 0.564355,-0.420423 0.28734,-0.203465 0.58367,-0.393171 0.29633,-0.189971 0.6014,-0.365654 0.3048,-0.175684 0.6178,-0.33708 0.31274,-0.161131 0.63288,-0.30771 0.32015,-0.146315 0.64665,-0.277548 0.32676,-0.131233 0.65907,-0.246856 0.33232,-0.115888 0.66993,-0.2159 0.33734,-0.100013 0.67918,-0.18415 z m -5.11492,9.323387 c -0.874979,0.65114 -1.263916,1.352286 -1.402293,2.440517 -0.153988,1.211527 0.08943,2.693194 0.871008,3.666067 0.416715,0.518847 1.073945,0.930804 1.752335,0.963877 0.23125,0.01111 0.46831,-0.01693 0.69771,-0.04286 0.79242,-0.43471 1.1766,-0.923396 1.44356,-1.794669 0.35322,-1.152789 0.24025,-2.659327 -0.3503,-3.718189 -0.37889,-0.67945 -1.03929,-1.294077 -1.81187,-1.478756 -0.38232,-0.09128 -0.81016,-0.05398 -1.20015,-0.03598 z"
         id="path7"
         style="stroke:#243445;stroke-width:1.19062;stroke-linejoin:miter;stroke-dasharray:none;stroke-opacity:1;paint-order:stroke markers fill" />
      <path
         fill="#71bbf1"
         d="m 91.114653,64.518837 c 0.66887,1.65153 0.74136,3.937794 0.45323,5.684573 -0.65326,3.958167 -3.26549,7.272073 -6.46721,9.550665 -3.67427,2.615141 -8.11847,3.923241 -12.61216,3.124464 -4.27037,-0.759354 -8.276694,-3.666066 -10.716416,-7.201429 -2.506927,-3.6322 -3.671888,-8.376973 -2.831836,-12.731485 0.738717,-3.829844 2.92735,-7.885642 6.233848,-10.082477 1.546225,-1.027113 5.561274,-2.774156 7.361234,-2.421202 q -0.34184,0.08414 -0.67918,0.18415 -0.33761,0.100012 -0.66993,0.2159 -0.33231,0.115623 -0.65907,0.246856 -0.3265,0.131233 -0.64665,0.277548 -0.32014,0.146579 -0.63288,0.30771 -0.313,0.161396 -0.6178,0.33708 -0.30507,0.175683 -0.6014,0.365654 -0.29633,0.189706 -0.58367,0.393171 -0.287073,0.203729 -0.564356,0.420423 -0.277283,0.216693 -0.544248,0.446352 -0.2667,0.229658 -0.522552,0.471487 -0.255852,0.241565 -0.499798,0.4953 -0.24421,0.253471 -0.47625,0.518054 -0.23204,0.264848 -0.451379,0.540015 -0.21934,0.275431 -0.42545,0.560652 -0.206111,0.285221 -0.398727,0.579967 -0.192352,0.294745 -0.370946,0.597958 -0.178594,0.303477 -0.342635,0.614627 -0.164307,0.311415 -0.313532,0.630237 -0.149225,0.318823 -0.283633,0.644261 -0.134144,0.325173 -0.252942,0.656696 -0.118798,0.331258 -0.221985,0.667808 -0.102923,0.33655 -0.190235,0.677333 -0.08731,0.341048 -0.158486,0.6858 -0.07117,0.344752 -0.125942,0.692415 -0.05503,0.347662 -0.0934,0.697442 -0.03863,0.350043 -0.06086,0.701145 -0.02196,0.351367 -0.02752,0.703263 -0.0056,0.351896 0.0053,0.703792 0.01085,0.351895 0.03836,0.702733 0.02725,0.350837 0.07117,0.700087 0.04392,0.34925 0.103981,0.696119 0.06006,0.346869 0.136525,0.690298 0.07646,0.343694 0.168804,0.683419 0.09234,0.33946 0.200554,0.674423 0.108215,0.334962 0.23204,0.664368 0.123825,0.329671 0.262996,0.652992 0.139171,0.323321 0.293158,0.639763 0.154252,0.316441 0.323056,0.62521 0.168805,0.308769 0.351896,0.6096 0.183092,0.300567 0.379942,0.592137 0.197114,0.291836 0.407458,0.573882 0.210609,0.282045 0.433917,0.554037 0.223573,0.271992 0.459581,0.533136 0.236008,0.261143 0.483923,0.51091 0.247915,0.250031 0.507206,0.487892 0.259557,0.23786 0.529696,0.463285 0.270404,0.225425 0.550863,0.43815 0.28046,0.21246 0.57071,0.411692 0.29024,0.199231 0.58949,0.384439 0.29924,0.185473 0.60695,0.356659 0.30745,0.17092 0.62283,0.327554 0.31512,0.156369 0.63738,0.297921 0.32227,0.141552 0.65088,0.267758 0.32861,0.126206 0.66278,0.237067 0.33417,0.110595 0.6731,0.205581 0.33893,0.09499 0.68183,0.173831 0.34317,0.07911 0.6895,0.141817 0.34634,0.06271 0.69507,0.109008 0.34898,0.04657 0.69955,0.07646 0.35084,0.03016 0.70247,0.04366 0.3519,0.01349 0.70379,0.01058 0.3519,-0.0029 0.70327,-0.02249 0.35163,-0.01931 0.70167,-0.0553 0.35005,-0.03598 0.69824,-0.08811 0.34819,-0.05239 0.69321,-0.120915 0.34528,-0.06879 0.68685,-0.153458 0.34185,-0.08467 0.67892,-0.185209 0.33735,-0.100541 0.66966,-0.216958 0.33206,-0.116417 0.65855,-0.248179 0.3265,-0.131763 0.64611,-0.278606 0.31989,-0.146844 0.63262,-0.308769 0.31248,-0.161661 0.61728,-0.338138 0.30453,-0.176212 0.6006,-0.366448 0.29607,-0.1905 0.58288,-0.394493 0.28681,-0.203994 0.56382,-0.421217 0.27702,-0.217223 0.54346,-0.447146 0.26643,-0.230187 0.52176,-0.472281 0.25532,-0.242358 0.499,-0.496358 0.24368,-0.254 0.47519,-0.519113 0.23151,-0.265112 0.45059,-0.540544 0.21881,-0.275696 0.42439,-0.561446 0.20558,-0.285485 0.39767,-0.580495 0.19209,-0.295011 0.37015,-0.598752 0.17807,-0.303477 0.34158,-0.615157 0.16351,-0.311679 0.31247,-0.630766 0.1487,-0.318823 0.28231,-0.644525 0.13362,-0.325702 0.25188,-0.657225 0.11827,-0.331523 0.22093,-0.668073 0.1024,-0.336815 0.18918,-0.677863 0.0868,-0.341312 0.15716,-0.686064 0.0707,-0.344752 0.12488,-0.692679 0.0545,-0.347663 0.0923,-0.697707 0.0378,-0.349779 0.0595,-0.701145 0.0214,-0.351367 0.0264,-0.703263 0.005,-0.351896 -0.007,-0.703792 z"
         id="path8"
         style="stroke:#243445;stroke-width:1.19062;stroke-linejoin:miter;stroke-dasharray:none;stroke-opacity:1;paint-order:stroke markers fill" />
      <path
         fill="#71bbf1"
         d="m 64.404701,88.8441 c -0.71464,0.167216 -1.343025,0.306916 -1.824832,0.894027 -1.093258,-2.679171 -1.930399,-5.549371 -2.867289,-8.292571 q -2.200804,-6.401329 -4.282546,-12.84261 c -1.15226,-3.685911 -2.1844,-7.408863 -3.309408,-11.10324 -0.388408,-1.274762 -1.76239,-4.489185 -1.833827,-5.521589 l 0.145785,0.07408 c 0.542131,2.159794 1.665552,4.361127 2.456392,6.466417 l 6.697398,17.485254 q 1.488281,3.959489 2.891102,7.950199 c 0.559858,1.566334 1.032404,3.296444 1.843616,4.746361 0.02725,0.04842 0.05583,0.09578 0.08361,0.143669 z"
         id="path9"
         style="stroke:#243445;stroke-width:1.19062;stroke-linejoin:miter;stroke-dasharray:none;stroke-opacity:1;paint-order:stroke markers fill" />
      <path
         fill="#83d1ed"
         d="m 69.339183,66.792931 c -0.2294,0.02593 -0.46646,0.05398 -0.69771,0.04286 -0.67839,-0.03307 -1.33562,-0.44503 -1.752335,-0.963877 -0.781579,-0.972873 -1.024996,-2.45454 -0.871008,-3.666067 0.138377,-1.088231 0.527314,-1.789377 1.402293,-2.440517 0.38999,-0.01799 0.81783,-0.0553 1.20015,0.03598 0.77258,0.184679 1.43298,0.799306 1.81187,1.478756 0.59055,1.058862 0.70352,2.5654 0.3503,3.718189 -0.26696,0.871273 -0.65114,1.359959 -1.44356,1.794669 z"
         id="path10"
         style="stroke:#243445;stroke-width:1.19062;stroke-linejoin:miter;stroke-dasharray:none;stroke-opacity:1;paint-order:stroke markers fill" />
      <path
         fill="#3286d1"
         d="m 123.10807,73.094777 c -7.76817,3.574785 -15.26593,7.658893 -23.188617,10.914327 -1.38694,0.569912 -6.42011,2.241814 -7.0432,3.232943 -0.42149,-0.03228 -16.40655,4.654815 -17.21803,5.295371 -0.0376,0.02963 -0.0685,0.06668 -0.10292,0.100013 v 0.424391 l -0.11801,0.410369 -0.21537,0.07329 -0.0939,-0.161661 c -1.45706,-0.102393 -3.92801,0.873919 -5.3893,1.246717 -1.14935,0.293158 -2.3331,0.475985 -3.490121,0.763058 -4.552421,1.128713 -10.964862,3.038744 -15.603008,2.696104 2.309812,-1.309952 4.531783,-2.909358 6.761162,-4.356893 1.5494,-1.005946 3.620029,-2.055284 4.940036,-3.334279 0.256116,-0.24818 0.220662,-0.318559 0.233097,-0.6604 0.481807,-0.587111 1.110192,-0.726811 1.824832,-0.894027 2.274358,0.239977 21.612222,-5.894123 25.356872,-7.005638 l 11.776597,-3.379787 c 3.61712,-1.035315 7.28531,-1.894152 10.91433,-2.889515 2.08545,-0.572294 9.07018,-2.669116 10.78098,-2.723091 z"
         id="path11"
         style="stroke:#243445;stroke-width:1.19062;stroke-linejoin:miter;stroke-dasharray:none;stroke-opacity:1;paint-order:stroke markers fill" />
      <path
         fill="#3286d1"
         d="m 40.468641,74.505006 c 1.237456,3.337983 2.283883,6.744758 3.443816,10.109729 0.967317,2.806171 2.122752,5.6134 2.871788,8.484923 -2.487348,-1.304131 -4.9784,-4.326731 -6.211623,-6.815402 -0.471488,-0.951177 -0.820473,-1.969558 -0.964671,-3.023923 -0.317765,-2.32066 0.107156,-6.502135 0.86069,-8.755327 z"
         id="path12"
         style="stroke:#243445;stroke-width:1.19062;stroke-linejoin:miter;stroke-dasharray:none;stroke-opacity:1;paint-order:stroke markers fill" />
      <path
         fill="#e2e2e2"
         d="m 138.61529,110.42061 c -1.73751,1.66608 -3.50017,3.31549 -5.1943,5.02576 -1.3716,1.3843 -2.85882,3.39487 -4.4958,4.40981 -1.14723,0.56197 -1.98702,1.21232 -2.43707,2.4638 -0.0958,0.2667 -0.16431,0.54425 -0.23204,0.81915 l -0.10001,0.10027 c -0.29343,-0.25532 -0.38841,-0.46275 -0.52335,-0.81491 -0.0159,-0.0415 -0.031,-0.0834 -0.0463,-0.12489 l 0.0182,0.16458 -0.12091,-0.13283 -0.13653,0.62389 -0.24632,0.15611 c 0.0937,-2.03359 1.46526,-4.07565 2.81093,-5.50942 l 1.1213,-1.16364 q 4.60375,-4.52729 8.82015,-9.41705 c -1.44674,-0.78264 -3.02947,-1.3933 -4.52331,-2.09021 -1.7018,-0.79375 -3.34407,-1.69889 -4.98872,-2.60323 1.94522,-0.90832 3.91398,-1.79891 5.75971,-2.900371 7.67927,-4.583109 13.45936,-11.502757 18.31843,-18.875636 13.94989,0.786607 27.01184,2.311665 40.12856,7.4549 -12.35472,6.175111 -20.31021,14.724067 -26.78986,26.853617 -4.63444,-0.9689 -9.31994,-2.09153 -13.86998,-3.40174 -4.5421,-1.27688 -8.98049,-2.67732 -13.43978,-4.22143 -0.26352,1.21073 -0.26035,2.01692 0.16695,3.18347 z m 12.43992,-20.057538 c 0.60087,0.297128 17.05266,2.842419 18.65339,3.04165 0.55377,0.06879 1.04854,0.102659 1.60337,0.03916 -2.26933,-0.908579 -18.31657,-3.453606 -20.25676,-3.08081 z m -2.10423,2.893484 c 0.8628,0.490802 18.96454,3.774283 20.10648,3.616325 -0.11695,-0.121973 -0.19685,-0.213784 -0.35534,-0.282575 -0.82523,-0.358511 -2.01983,-0.491332 -2.91438,-0.67019 -3.93039,-0.785283 -7.9121,-1.348052 -11.87159,-1.966383 -1.48352,-0.231775 -3.19855,-0.697442 -4.68207,-0.715698 -0.0799,-7.94e-4 -0.21034,0.01244 -0.2831,0.01852 z"
         id="path13"
         style="stroke:#243445;stroke-width:1.19062;stroke-linejoin:miter;stroke-dasharray:none;stroke-opacity:1;paint-order:stroke markers fill" />
      <path
         d="m 75.555303,93.061822 v -0.424391 c 0.0344,-0.03334 0.0654,-0.07038 0.10292,-0.100013 0.81148,-0.640556 16.79654,-5.32765 17.21803,-5.295371 l -0.0259,0.170128 c -0.72417,0.214841 -1.41526,0.432329 -2.10556,0.743214 0.0603,0.514086 0.32068,1.685396 0.0196,2.111111 l -0.7538,0.404812 c -2.78659,1.433513 -5.50359,2.997729 -8.28648,4.436269 -1.6256,0.840316 -3.46499,1.524529 -4.97761,2.540268 l -0.0931,-0.009 c -0.60061,-1.00992 -0.82894,-3.34037 -1.09802,-4.577297 z"
         id="path14"
         style="stroke:#243445;stroke-width:1.19062;stroke-linejoin:miter;stroke-dasharray:none;stroke-opacity:1;paint-order:stroke markers fill" />
      <path
         fill="#83d1ed"
         d="m 171.31197,93.443881 c -0.55483,0.0635 -1.0496,0.02963 -1.60337,-0.03916 -1.60073,-0.199231 -18.05252,-2.744522 -18.65339,-3.04165 1.94019,-0.372797 17.98743,2.17223 20.25676,3.08081 z"
         id="path15"
         style="stroke:#243445;stroke-width:1.19062;stroke-linejoin:miter;stroke-dasharray:none;stroke-opacity:1;paint-order:stroke markers fill" />
      <path
         fill="#3286d1"
         d="m 90.010543,90.671312 0.7538,-0.404812 c -0.14393,2.01295 1.12951,11.17283 0.62601,12.15734 l -0.37624,0.091 c -0.35005,-0.0214 -0.52943,0.0249 -0.81862,-0.19394 -0.35322,-1.89363 -0.41434,-9.697512 -0.18495,-11.649608 z"
         id="path16"
         style="stroke:#243445;stroke-width:1.19062;stroke-linejoin:miter;stroke-dasharray:none;stroke-opacity:1;paint-order:stroke markers fill" />
      <path
         fill="#125ba3"
         d="m 76.746453,97.647849 c 1.51262,-1.015739 3.35201,-1.699952 4.97761,-2.540268 2.78289,-1.43854 5.49989,-3.002756 8.28648,-4.436269 -0.22939,1.952096 -0.16827,9.755978 0.18495,11.649608 0.28919,0.21881 0.46857,0.17251 0.81862,0.19394 l -0.002,0.0587 c -0.5461,0.0262 -1.18031,-0.009 -1.71,0.10663 -2.08598,0.13758 -9.39377,0.22992 -10.89951,0.83794 -0.28681,-0.0484 -0.5207,-0.11536 -0.78952,-0.22675 -0.57785,-1.65947 -0.40904,-3.735391 -0.82523,-5.478991 -0.0132,-0.055 -0.0275,-0.1098 -0.0413,-0.16457 z"
         id="path17"
         style="stroke:#243445;stroke-width:1.19062;stroke-linejoin:miter;stroke-dasharray:none;stroke-opacity:1;paint-order:stroke markers fill" />
      <path
         fill="#83d1ed"
         d="m 169.05746,96.872881 c -1.14194,0.157958 -19.24368,-3.125523 -20.10648,-3.616325 0.0728,-0.0061 0.2032,-0.01932 0.2831,-0.01852 1.48352,0.01826 3.19855,0.483923 4.68207,0.715698 3.95949,0.618331 7.9412,1.1811 11.87159,1.966383 0.89455,0.178858 2.08915,0.311679 2.91438,0.67019 0.15849,0.06879 0.23839,0.160602 0.35534,0.282574 z"
         id="path18"
         style="stroke:#243445;stroke-width:1.19062;stroke-linejoin:miter;stroke-dasharray:none;stroke-opacity:1;paint-order:stroke markers fill" />
      <path
         fill="#83d1ed"
         d="m 75.221923,93.545481 c -7.28742,2.294996 -17.72417,5.186098 -25.401585,5.076298 0.26723,-0.18891 0.547952,-0.35798 0.825236,-0.53208 4.638146,0.34264 11.050587,-1.567391 15.603008,-2.696104 1.157021,-0.287073 2.340771,-0.4699 3.490121,-0.763058 1.46129,-0.372798 3.93224,-1.34911 5.3893,-1.246717 z"
         id="path19"
         style="stroke:#243445;stroke-width:1.19062;stroke-linejoin:miter;stroke-dasharray:none;stroke-opacity:1;paint-order:stroke markers fill" />
      <path
         fill="#e2e2e2"
         d="m 90.112673,103.26574 c 0.51938,-0.008 1.06521,-0.1016 1.58406,-0.15319 1.91506,0.031 3.85154,-0.16378 5.76316,-0.27887 q 3.533237,-0.20585 7.069927,-0.33761 c 1.59253,-0.0741 3.40466,-0.31935 4.97205,-0.0397 0.53313,0.0953 0.91149,0.34767 1.30545,0.703 4.55639,5.57953 4.94877,15.90755 5.54276,22.9198 0.15928,1.88039 0.61224,4.80218 0.40746,6.5958 -0.01,0.0855 -0.0296,0.16959 -0.0444,0.25426 -5.8256,-0.0841 -11.63638,0.57388 -17.425727,1.1594 q -13.33632,1.3642 -26.60914,3.24829 -0.91678,-6.24813 -1.91056,-12.48463 c -0.76597,-4.84214 -1.3962,-10.142 -3.27184,-14.70263 -1.064679,-2.58842 -2.770712,-3.34248 -5.523437,-2.86252 -0.529166,0.0921 -1.119716,0.34978 -1.618191,0.14102 3.595687,-1.51686 9.635858,-2.02644 13.581328,-2.43972 1.17025,-0.12277 2.98397,-0.0651 4.0505,-0.50774 1.52771,-0.0349 3.09775,-0.3011 4.61831,-0.46963 q 3.74994,-0.41514 7.50834,-0.74534 z m 7.0231,7.38796 c -2.77654,0.26803 -21.4757,1.71001 -22.49672,2.56408 l -0.0114,0.23575 c 0.28125,0.16906 0.52784,0.13864 0.84402,0.11826 0.67945,-0.0436 1.36075,-0.20505 2.03676,-0.29077 1.44727,-0.18336 2.9083,-0.29792 4.35928,-0.45747 5.0366,-0.55377 10.11078,-1.08558 15.16829,-1.40202 0.0389,0.18309 0.0992,0.33734 0.16722,0.51117 0.64029,0.19156 11.503027,-0.45879 13.240277,-0.49636 l -0.5879,-1.72085 c -4.22408,0.0905 -8.52409,0.45985 -12.719847,0.93821 z m 0.21828,4.41775 c 4.499767,-0.41725 9.079177,-0.7956 13.598787,-0.83158 0.0138,-0.66331 -0.17938,-1.32213 -0.32173,-1.96692 -4.41616,0.19156 -8.87386,0.44636 -13.289227,0.54134 z m 13.641387,-0.0995 q -6.36561,0.29633 -12.709787,0.8972 c -0.31353,0.0286 -0.52625,0.0526 -0.8046,0.20426 -0.31829,0.63791 -0.18653,1.43801 -0.17753,2.14207 4.186237,-0.73925 10.076127,-0.81254 14.441217,-1.03003 -0.14737,-0.60351 -0.31088,-1.78514 -0.7493,-2.2135 z M 99.540313,104.91381 q -9.26651,0.49001 -18.49861,1.42531 c -2.53709,0.26088 -5.11704,0.79719 -7.65255,0.95012 0.5641,0.80487 1.04114,1.58618 1.4859,2.46116 l 1.3388,-0.0521 c 3.53112,-0.28469 7.02971,-0.76438 10.55105,-1.1303 q 4.5892,-0.43709 9.18713,-0.77205 c 2.08624,-0.16113 4.196017,-0.37412 6.288077,-0.41593 q -0.7694,-1.28058 -1.60734,-2.51724 z m 9.125737,13.3612 c -3.81635,0.20558 -7.61868,0.49583 -11.429737,0.77655 q -0.0783,1.09167 -0.1733,2.18202 c 1.18507,-0.14552 2.38866,-0.34661 3.580077,-0.41169 3.82138,-0.42651 7.75123,-0.5723 11.59589,-0.68845 -0.13546,-0.65378 -0.28548,-1.30863 -0.40375,-1.96559 -1.04987,0.0344 -2.12355,0.0217 -3.16918,0.10716 z"
         id="path20"
         style="stroke:#243445;stroke-width:1.19062;stroke-linejoin:miter;stroke-dasharray:none;stroke-opacity:1;paint-order:stroke markers fill" />
      <path
         d="m 89.301993,102.68022 c 0.52969,-0.11562 1.1639,-0.0804 1.71,-0.10663 l 0.51938,0.077 c 0.10636,0.1815 0.13017,0.24394 0.16536,0.46196 -0.51885,0.0516 -1.06468,0.14552 -1.58406,0.15319 q -3.7584,0.3302 -7.50834,0.74534 c -1.52056,0.16853 -3.0906,0.43471 -4.61831,0.46963 1.56131,-0.70935 5.26706,-0.77073 7.0739,-0.87498 l 0.22411,-0.38761 -0.0405,0.23124 c 0.23627,-0.22648 0.44291,-0.22621 0.75326,-0.30109 l 0.0151,-0.15849 c -0.0728,-0.0111 -0.14526,-0.0426 -0.21829,-0.0331 -0.16007,0.0204 -0.36539,0.1569 -0.54133,0.18891 -0.91229,0.16537 -5.71977,0.4154 -6.71804,0.37889 -0.0439,-0.002 -0.0878,-0.004 -0.13176,-0.006 1.50574,-0.60802 8.81353,-0.70036 10.89951,-0.83794 z"
         id="path21"
         style="stroke:#243445;stroke-width:1.19062;stroke-linejoin:miter;stroke-dasharray:none;stroke-opacity:1;paint-order:stroke markers fill" />
      <path
         fill="#e2e2e2"
         d="m 110.92956,102.95274 -0.18812,-0.29871 c 0.23522,-0.0741 0.38338,0.063 0.59769,0.17489 0.78158,0.40851 1.53009,1.00224 2.26246,1.50336 2.50692,1.71529 4.86515,3.5978 7.29456,5.41655 2.42199,1.81292 5.20912,3.52504 7.39775,5.60414 -0.4744,0.37888 -0.98002,0.74401 -1.42346,1.15782 -1.27529,0.0651 -10.80373,-8.22669 -13.04131,-9.34959 -0.92022,-1.50865 -1.65576,-2.92602 -2.89957,-4.20846 z"
         id="path22"
         style="stroke:#243445;stroke-width:1.19062;stroke-linejoin:miter;stroke-dasharray:none;stroke-opacity:1;paint-order:stroke markers fill" />
      <path
         d="m 73.389153,107.28926 c 2.53551,-0.15293 5.11546,-0.68924 7.65255,-0.95012 q 9.2321,-0.9353 18.49861,-1.42531 l 1.092457,-0.0511 q 0.83794,1.23666 1.60734,2.51724 c -2.09206,0.0418 -4.201837,0.2548 -6.288077,0.41593 q -4.59793,0.33496 -9.18713,0.77205 c -3.52134,0.36592 -7.01993,0.84561 -10.55105,1.1303 l -1.3388,0.0521 c -0.44476,-0.87498 -0.9218,-1.65629 -1.4859,-2.46116 z"
         id="path24"
         style="stroke:#243445;stroke-width:1.19062;stroke-linejoin:miter;stroke-dasharray:none;stroke-opacity:1;paint-order:stroke markers fill" />
      <path
         fill="#71bbf1"
         d="m 59.365182,107.84224 c 0.288925,-0.20981 0.65405,-0.29951 0.989013,-0.41407 0.498475,0.20876 1.089025,-0.0489 1.618191,-0.14102 2.752725,-0.47996 4.458758,0.2741 5.523437,2.86252 1.87564,4.56063 2.50587,9.86049 3.27184,14.70263 q 0.99378,6.2365 1.91056,12.48463 c -3.37238,0.49583 -6.773599,0.90964 -10.112906,1.59914 0.491332,-1.60813 0.961232,-3.07604 0.587111,-4.77943 -0.520436,-2.36987 -1.815042,-3.64569 -3.772165,-4.90696 1.481667,-0.0775 2.684727,-0.29924 3.928534,-1.18507 1.957387,-1.39382 2.992702,-3.54621 3.374495,-5.8719 0.504296,-3.07102 -0.08519,-6.50716 -1.947598,-9.04716 -1.335881,-1.82192 -2.915708,-2.59794 -5.111485,-2.93105 -0.315383,-0.0699 -0.532871,-0.0442 -0.843492,0.0119 l -0.114035,0.0214 c -0.291042,-0.14684 -0.287073,-0.13467 -0.407194,-0.43656 0.0635,-0.70776 0.48895,-1.20544 1.010444,-1.64624 0.04392,-0.0368 0.08863,-0.0725 0.132821,-0.10874 z"
         id="path25"
         style="stroke:#243445;stroke-width:1.19062;stroke-linejoin:miter;stroke-dasharray:none;stroke-opacity:1;paint-order:stroke markers fill" />
      <path
         fill="#71bbf1"
         d="m 113.82913,107.1612 c 2.23758,1.1229 11.76602,9.41467 13.04131,9.34959 l -0.004,0.14419 c -1.72958,1.34753 -2.96995,3.00937 -3.68988,5.07868 -0.19288,0.55457 -0.21113,1.23984 -0.44873,1.7526 -2.06005,-1.56924 -3.84281,-3.48536 -5.92376,-5.02602 0.0781,-3.74518 -1.47187,-7.89623 -2.97497,-11.29904 z"
         id="path26"
         style="stroke:#243445;stroke-width:1.19062;stroke-linejoin:miter;stroke-dasharray:none;stroke-opacity:1;paint-order:stroke markers fill" />
      <path
         d="m 138.61529,110.42061 c -0.4273,-1.16655 -0.43047,-1.97274 -0.16695,-3.18347 4.45929,1.54411 8.89768,2.94455 13.43978,4.22143 -0.53605,1.388 -1.24513,2.49608 -2.22515,3.60944 -0.16483,0.18706 -0.10715,0.11298 -0.20558,0.38365 -0.81148,0.53737 -1.56289,0.99219 -2.50031,1.2872 -0.77629,0.0391 -1.49966,0.0241 -2.24155,-0.2376 -2.72124,-0.95964 -4.89903,-3.54039 -6.10024,-6.08065 z"
         id="path27"
         style="stroke:#243445;stroke-width:1.19062;stroke-linejoin:miter;stroke-dasharray:none;stroke-opacity:1;paint-order:stroke markers fill" />
      <path
         fill="#e2e2e2"
         d="m 53.051695,114.38724 c 0.04842,-0.1307 0.09657,-0.26167 0.14896,-0.39079 1.245394,-3.06255 3.125258,-4.88474 6.164527,-6.15421 l 0.03757,0.21405 c -0.04419,0.0362 -0.0889,0.072 -0.132821,0.10874 -0.521494,0.4408 -0.946944,0.93848 -1.010444,1.64624 0.120121,0.30189 0.116152,0.28972 0.407194,0.43656 l 0.114035,-0.0214 c 0.310621,-0.0561 0.528109,-0.0817 0.843492,-0.0119 -3.269192,0.74506 -3.56235,1.61686 -5.570008,3.89069 0.03493,-0.0108 0.07011,-0.0212 0.105039,-0.032 2.091002,-0.66358 3.610769,-2.04814 5.879571,-0.92313 0.690298,0.34237 1.207823,0.77338 1.60999,1.42981 0.02514,0.22992 0.01085,0.33549 -0.03942,0.56303 -0.06853,0.31009 -0.01376,0.43365 0.0799,0.72707 0.665162,1.34171 0.374385,3.33719 -0.08652,4.71858 -0.116946,0.34978 -0.270933,0.68713 -0.426508,1.0213 -2.240492,1.47558 -4.90564,2.72891 -7.363883,3.81582 -1.087967,0.49662 -2.169848,1.00832 -3.293269,1.42028 -0.747448,-0.55324 -1.417373,-1.24222 -2.096029,-1.87828 -0.807773,-0.93556 -1.678252,-1.7137 -2.874963,-2.09814 -1.619779,0.75882 -3.436408,2.09999 -4.024312,3.86133 -0.297921,0.89217 -0.185473,1.84203 0.259292,2.66461 0.181768,0.33629 0.402695,0.65749 0.62865,0.96547 0.84402,1.2237 2.459302,2.42252 3.519752,3.50599 0.108214,-1.36313 0.368035,-2.63842 1.146175,-3.79492 0.84402,-1.25491 2.273035,-2.39633 3.774545,-2.7178 1.037432,-0.0407 2.49899,-0.95011 3.42318,-1.4298 1.197239,0.65246 6.138597,4.21878 6.943724,5.19324 -1.512358,2.03729 -2.785004,4.26243 -4.064793,6.45027 -0.652463,1.11522 -1.255977,2.32993 -2.047875,3.34963 -0.238125,0.30639 -0.442119,0.54425 -0.843227,0.59346 -0.344223,0.0421 -0.716757,-0.0127 -1.061773,-0.041 -0.400579,-0.1352 -0.80989,-0.2757 -1.189302,-0.46276 -1.078442,-0.53102 -2.0828,-1.43033 -2.951163,-2.24763 -2.347912,-2.2098 -4.429654,-4.72043 -6.620404,-7.08396 -0.968375,-1.04457 -2.071952,-1.964 -3.026039,-3.01228 -0.225955,-0.24844 -0.540809,-0.55933 -0.61595,-0.90011 -0.203994,-0.92684 0.813858,-2.06216 1.348845,-2.73103 q 0.661194,-0.82365 1.372394,-1.60417 0.711465,-0.78052 1.47029,-1.515 0.75856,-0.73475 1.561835,-1.42029 0.803275,-0.68553 1.647825,-1.31974 c 0.942975,-0.70511 6.468269,-4.03754 6.780477,-4.63021 0.02646,-0.0505 0.04763,-0.10371 0.07144,-0.15557 z"
         id="path28"
         style="stroke:#243445;stroke-width:1.19062;stroke-linejoin:miter;stroke-dasharray:none;stroke-opacity:1;paint-order:stroke markers fill" />
      <path
         fill="#71bbf1"
         d="m 97.135773,110.6537 c 4.195757,-0.47836 8.495767,-0.84772 12.719847,-0.93821 l 0.5879,1.72085 c -1.73725,0.0376 -12.599987,0.68792 -13.240277,0.49636 -0.068,-0.17383 -0.12832,-0.32808 -0.16722,-0.51117 z"
         id="path29"
         style="stroke:#243445;stroke-width:1.19062;stroke-linejoin:miter;stroke-dasharray:none;stroke-opacity:1;paint-order:stroke markers fill" />
      <path
         fill="url(#gradient_0)"
         d="m 128.92519,119.85618 c 1.63698,-1.01494 3.1242,-3.02551 4.4958,-4.40981 1.69413,-1.71027 3.45679,-3.35968 5.1943,-5.02576 1.20121,2.54026 3.379,5.12101 6.10024,6.08065 0.74189,0.26167 1.46526,0.27675 2.24155,0.2376 -1.30916,0.95832 -2.65986,1.85975 -3.94864,2.84506 -2.00978,1.5367 -3.95341,3.16177 -5.97615,4.68101 -1.91796,1.44039 -3.99441,2.73341 -5.80972,4.29948 -0.91678,0.31009 -2.21218,0.14208 -3.08716,-0.24395 -1.54675,-0.68209 -2.50983,-1.83171 -3.10753,-3.37476 -0.0304,-0.60007 -0.10768,-1.25518 0.073,-1.83435 l 0.24632,-0.15611 0.13653,-0.62389 0.12091,0.13283 -0.0182,-0.16458 c 0.0153,0.0415 0.0304,0.0833 0.0463,0.12489 0.13494,0.35216 0.22992,0.55959 0.52335,0.81491 l 0.10001,-0.10027 c -0.0254,1.05251 0.11271,1.94839 0.68553,2.85141 0.44292,0.69797 1.09485,1.1901 1.91797,1.33139 q 0.16616,0.0278 0.33417,0.0386 0.16801,0.0111 0.33628,0.005 0.16828,-0.006 0.33523,-0.0283 0.16695,-0.0228 0.33073,-0.0619 0.16378,-0.0392 0.32279,-0.0944 0.15901,-0.0553 0.31194,-0.12621 0.15267,-0.0709 0.29766,-0.15663 0.14473,-0.086 0.28046,-0.18574 c 0.939,-0.69215 1.49172,-1.79123 1.6338,-2.93529 0.11536,-0.9271 -0.0601,-1.81186 -0.66675,-2.54079 -0.91228,-1.09617 -2.12302,-1.28402 -3.4507,-1.38033 z"
         id="path30"
         style="fill:url(#gradient_0);stroke:#243445;stroke-width:1.19062;stroke-linejoin:miter;stroke-dasharray:none;stroke-opacity:1;paint-order:stroke markers fill" />
      <path
         fill="#71bbf1"
         d="m 97.036023,111.42153 c -5.05751,0.31644 -10.13169,0.84825 -15.16829,1.40202 -1.45098,0.15955 -2.91201,0.27411 -4.35928,0.45747 -0.67601,0.0857 -1.35731,0.24712 -2.03676,0.29077 -0.31618,0.0204 -0.56277,0.0508 -0.84402,-0.11826 l 0.0114,-0.23575 c 1.02102,-0.85407 19.72018,-2.29605 22.49672,-2.56408 z"
         id="path31"
         style="stroke:#243445;stroke-width:1.19062;stroke-linejoin:miter;stroke-dasharray:none;stroke-opacity:1;paint-order:stroke markers fill" />
      <path
         fill="#71bbf1"
         d="m 110.95284,114.23987 c -4.51961,0.036 -9.09902,0.41433 -13.598787,0.83158 l -0.0122,-2.25716 c 4.415367,-0.095 8.873067,-0.34978 13.289227,-0.54134 0.14235,0.64479 0.33549,1.30361 0.32173,1.96692 z"
         id="path32"
         style="stroke:#243445;stroke-width:1.19062;stroke-linejoin:miter;stroke-dasharray:none;stroke-opacity:1;paint-order:stroke markers fill" />
      <path
         fill="#71bbf1"
         d="m 98.285653,115.86917 q 6.344177,-0.60087 12.709787,-0.8972 c 0.43842,0.42836 0.60193,1.60999 0.7493,2.2135 -4.36509,0.21749 -10.25498,0.29078 -14.441217,1.03003 -0.009,-0.70406 -0.14076,-1.50416 0.17753,-2.14207 0.27835,-0.15161 0.49107,-0.17568 0.8046,-0.20426 z"
         id="path33"
         style="stroke:#243445;stroke-width:1.19062;stroke-linejoin:miter;stroke-dasharray:none;stroke-opacity:1;paint-order:stroke markers fill" />
      <path
         d="m 128.2939,115.35297 c 0.41328,0.26299 0.54319,0.65828 0.73924,1.08532 l -1.1213,1.16364 c -1.34567,1.43377 -2.71727,3.47583 -2.81093,5.50942 -0.18071,0.57917 -0.10345,1.23428 -0.073,1.83435 l -0.21669,-0.0455 c -0.40005,-0.39423 -0.36777,-0.91969 -0.4326,-1.46367 0.0659,-2.36088 1.37557,-4.35425 2.41459,-6.38916 l 0.0733,-0.39238 0.004,-0.14419 c 0.44344,-0.41381 0.94906,-0.77894 1.42346,-1.15782 z"
         id="path34"
         style="stroke:#243445;stroke-width:1.19062;stroke-linejoin:miter;stroke-dasharray:none;stroke-opacity:1;paint-order:stroke markers fill" />
      <path
         fill="#e2e2e2"
         d="m 146.95708,116.73886 c 0.93742,-0.29501 1.68883,-0.74983 2.50031,-1.2872 -0.80195,1.47875 -12.30736,9.9486 -14.44175,11.33925 -0.96891,0.63129 -2.03412,1.30836 -3.15542,1.62639 -0.2122,0.0601 -0.42122,0.10425 -0.63765,0.14711 1.81531,-1.56607 3.89176,-2.85909 5.80972,-4.29948 2.02274,-1.51924 3.96637,-3.14431 5.97615,-4.68101 1.28878,-0.98531 2.63948,-1.88674 3.94864,-2.84506 z"
         id="path35"
         style="stroke:#243445;stroke-width:1.19062;stroke-linejoin:miter;stroke-dasharray:none;stroke-opacity:1;paint-order:stroke markers fill" />
      <path
         fill="url(#gradient_1)"
         d="m 122.72786,123.48626 c 0.2376,-0.51276 0.25585,-1.19803 0.44873,-1.7526 0.71993,-2.06931 1.9603,-3.73115 3.68988,-5.07868 l -0.0733,0.39238 c -1.03902,2.03491 -2.3487,4.02828 -2.41459,6.38916 l -0.0296,0.83238 -0.17621,0.15822 c -0.50562,-0.0175 -1.06177,-0.62442 -1.44489,-0.94086 z"
         id="path36"
         style="fill:url(#gradient_1);stroke:#243445;stroke-width:1.19062;stroke-linejoin:miter;stroke-dasharray:none;stroke-opacity:1;paint-order:stroke markers fill" />
      <path
         fill="#71bbf1"
         d="m 97.236313,119.05158 c 3.811057,-0.28072 7.613387,-0.57097 11.429737,-0.77655 1.04563,-0.0855 2.11931,-0.0728 3.16918,-0.10716 0.11827,0.65696 0.26829,1.31181 0.40375,1.96559 -3.84466,0.11615 -7.77451,0.26194 -11.59589,0.68845 -1.191417,0.0651 -2.395007,0.26617 -3.580077,0.41169 q 0.095,-1.09035 0.1733,-2.18202 z"
         id="path37"
         style="stroke:#243445;stroke-width:1.19062;stroke-linejoin:miter;stroke-dasharray:none;stroke-opacity:1;paint-order:stroke markers fill" />
      <path
         fill="#125ba3"
         d="m 126.25608,123.13913 c 0.0677,-0.2749 0.13626,-0.55245 0.23204,-0.81915 0.45005,-1.25148 1.28984,-1.90183 2.43707,-2.4638 1.32768,0.0963 2.53842,0.28416 3.4507,1.38033 0.60669,0.72893 0.78211,1.61369 0.66675,2.54079 -0.14208,1.14406 -0.6948,2.24314 -1.6338,2.93529 q -0.13573,0.0998 -0.28046,0.18574 -0.14499,0.0857 -0.29766,0.15663 -0.15266,0.0709 -0.31194,0.12621 -0.15901,0.0553 -0.32279,0.0944 -0.16378,0.0392 -0.33073,0.0619 -0.16695,0.0225 -0.33523,0.0283 -0.16827,0.006 -0.33628,-0.005 -0.16801,-0.0108 -0.33417,-0.0386 c -0.82312,-0.14129 -1.47505,-0.63342 -1.91797,-1.33139 -0.57282,-0.90302 -0.71093,-1.7989 -0.68553,-2.85141 z"
         id="path38"
         style="stroke:#243445;stroke-width:1.19062;stroke-linejoin:miter;stroke-dasharray:none;stroke-opacity:1;paint-order:stroke markers fill" />
      <path
         fill="#125ba3"
         d="m 42.411741,130.36093 c -0.225955,-0.30798 -0.446882,-0.62918 -0.62865,-0.96547 -0.444765,-0.82258 -0.557213,-1.77244 -0.259292,-2.66461 0.587904,-1.76134 2.404533,-3.10251 4.024312,-3.86133 1.196711,0.38444 2.06719,1.16258 2.874963,2.09814 l -0.159279,0.24501 c -0.853546,-0.41064 -1.981729,-0.62468 -2.911211,-0.33867 -0.923925,0.28469 -1.569243,1.10675 -1.988343,1.93807 -0.64823,1.28588 -0.4953,2.39951 -0.9525,3.54886 z"
         id="path39"
         style="stroke:#243445;stroke-width:1.19062;stroke-linejoin:miter;stroke-dasharray:none;stroke-opacity:1;paint-order:stroke markers fill" />
      <path
         fill="#3286d1"
         d="m 42.411741,130.36093 c 0.4572,-1.14935 0.30427,-2.26298 0.9525,-3.54886 0.4191,-0.83132 1.064418,-1.65338 1.988343,-1.93807 0.929482,-0.28601 2.057665,-0.072 2.911211,0.33867 0.837935,0.75644 1.6637,1.4896 2.588418,2.14153 -1.50151,0.32147 -2.930525,1.46289 -3.774545,2.7178 -0.77814,1.1565 -1.037961,2.43179 -1.146175,3.79492 -1.06045,-1.08347 -2.675732,-2.28229 -3.519752,-3.50599 z"
         id="path40"
         style="stroke:#243445;stroke-width:1.19062;stroke-linejoin:miter;stroke-dasharray:none;stroke-opacity:1;paint-order:stroke markers fill" />
      <path
         fill="#141b47"
         d="m 48.263795,125.21267 0.159279,-0.24501 c 0.678656,0.63606 1.348581,1.32504 2.096029,1.87828 1.123421,-0.41196 2.205302,-0.92366 3.293269,-1.42028 l 0.463021,0.49874 c -0.92419,0.47969 -2.385748,1.38906 -3.42318,1.4298 -0.924718,-0.65193 -1.750483,-1.38509 -2.588418,-2.14153 z"
         id="path41"
         style="stroke:#243445;stroke-width:1.19062;stroke-linejoin:miter;stroke-dasharray:none;stroke-opacity:1;paint-order:stroke markers fill" />
      <path
         fill="#e2e2e2"
         d="m 72.621863,138.18228 q 21.98608,-3.03636 44.076147,-5.18928 c 0.52228,2.2532 0.14366,4.83474 0.22066,7.14508 -1.84494,0.26008 -3.78566,0.15054 -5.64912,0.28839 -2.97418,0.21987 -5.98382,0.69506 -8.9453,1.07262 -9.467847,1.20677 -18.914797,2.96228 -28.347717,4.44077 q -0.5924,-3.89361 -1.35467,-7.75758 z"
         id="path42"
         style="stroke:#243445;stroke-width:1.19062;stroke-linejoin:miter;stroke-dasharray:none;stroke-opacity:1;paint-order:stroke markers fill" />
      <path
         fill="#71bbf1"
         d="m 62.163151,139.65786 c 3.507316,-0.3511 6.975212,-0.94668 10.458712,-1.47558 q 0.76227,3.86397 1.35467,7.75758 l -12.925426,1.92352 c -1.944423,0.29104 -3.969015,0.46196 -5.889096,0.85857 -0.08017,-0.13388 -0.12065,-0.1852 -0.165364,-0.35374 -0.122502,-0.4617 -0.754592,-5.7449 -0.647965,-5.93672 l 0.578644,-0.0918 c 0.436298,0.0781 0.901435,0.0947 1.345141,0.0863 2.380986,-0.0447 4.285192,-1.05384 5.890684,-2.76807 z"
         id="path43"
         style="stroke:#243445;stroke-width:1.19062;stroke-linejoin:miter;stroke-dasharray:none;stroke-opacity:1;paint-order:stroke markers fill" />
    </g>
  </g>
</svg>
