<?xml version="1.0" encoding="UTF-8" standalone="no"?>
<!-- Created with Inkscape (http://www.inkscape.org/) -->

<svg
   version="1.1"
   id="svg1"
   width="422.95789"
   height="511.21463"
   viewBox="0 0 422.95789 511.21463"
   sodipodi:docname="logo.svg"
   inkscape:version="1.4 (e7c3feb100, 2024-10-09)"
   xmlns:inkscape="http://www.inkscape.org/namespaces/inkscape"
   xmlns:sodipodi="http://sodipodi.sourceforge.net/DTD/sodipodi-0.dtd"
   xmlns="http://www.w3.org/2000/svg"
   xmlns:svg="http://www.w3.org/2000/svg">
  <defs
     id="defs1">
    <rect
       x="258.06533"
       y="283.0394"
       width="118.62681"
       height="139.43853"
       id="rect1" />
  </defs>
  <sodipodi:namedview
     id="namedview1"
     pagecolor="#ffffff"
     bordercolor="#000000"
     borderopacity="0.25"
     inkscape:showpageshadow="2"
     inkscape:pageopacity="0.0"
     inkscape:pagecheckerboard="0"
     inkscape:deskcolor="#d1d1d1"
     inkscape:zoom="0.48049848"
     inkscape:cx="203.95486"
     inkscape:cy="419.35617"
     inkscape:window-width="1440"
     inkscape:window-height="831"
     inkscape:window-x="0"
     inkscape:window-y="0"
     inkscape:window-maximized="1"
     inkscape:current-layer="g1" />
  <g
     inkscape:groupmode="layer"
     inkscape:label="Image"
     id="g1"
     transform="translate(-318.99114,-227.16761)">
    <path
       id="path1"
       style="fill:#464b6c;fill-opacity:1;stroke:#464b6c;stroke-width:2.3;stroke-dasharray:none;stroke-opacity:1"
       d="M 517.2177 228.33167 C 516.53067 228.37553 515.83105 228.51286 515.13176 228.7555 C 511.87804 229.88453 510.68087 233.1963 511.24114 236.42347 C 513.67877 250.46412 509.13176 262.91627 509.13176 277.42347 C 501.00914 278.27668 494.64108 281.90412 487.13176 283.31214 C 477.06755 285.19922 466.32402 284.49098 456.13176 285.5055 C 431.61327 287.94605 406.55345 292.61622 383.13176 300.42347 C 368.70204 305.23341 351.11137 310.41761 340.13176 321.42347 C 324.32082 337.27216 333.5534 370.92097 332.24114 391.33948 C 331.98879 395.26612 327.15206 398.84089 325.35247 402.42347 C 321.97161 409.15406 319.93148 417.85957 320.15911 425.42347 C 320.43707 434.66029 323.52251 445.17555 329.38176 452.42347 C 332.28624 456.0163 337.29894 458.26148 339.40911 462.42347 C 344.53045 472.52461 341.79281 485.4065 348.60247 495.42347 C 355.40447 505.42915 365.18194 508.17921 376.13176 511.42347 C 396.472 517.44996 417.78377 518.86646 438.13176 524.42347 L 438.13176 526.42347 C 431.24934 528.65015 421.44912 531.24421 415.15911 534.53284 C 412.2159 536.07166 412.01256 539.76557 409.04778 541.11683 C 389.45915 550.04456 354.39559 551.67463 360.93645 583.42347 C 361.74444 587.34534 363.1255 591.18378 365.54778 594.42347 C 372.27513 603.42103 382.5457 606.41193 393.13176 608.20081 C 397.60289 608.95637 406.84686 608.113 409.40911 612.5055 C 412.10442 617.12599 411.64001 626.14967 412.2138 631.42347 C 414.26227 650.25172 413.70864 673.78278 434.13176 681.39417 C 438.33022 682.95887 442.65294 684.19764 447.13176 684.42347 C 446.61177 694.73628 440.99507 708.33228 433.04778 715.17347 C 429.94417 717.8451 425.51933 717.93977 422.54778 720.83948 C 419.1494 724.15576 416.66893 730.39612 420.38176 734.31214 C 429.23488 743.64966 447.05785 728.12983 453.13176 722.39417 C 459.39479 716.47992 464.11782 709.11286 467.90911 701.42347 C 469.54253 698.1106 470.56518 692.19837 473.43645 689.78284 C 476.23888 687.4253 485.52116 689.42347 489.13176 689.42347 C 504.14882 689.42347 519.01546 689.56348 534.13176 689.42347 C 538.28276 689.38497 548.40154 685.99182 551.79778 688.83948 C 560.59892 696.21918 552.81738 714.12574 552.24114 722.42347 C 551.81451 728.56678 556.10533 732.48664 562.13176 731.31214 C 567.1635 730.33142 569.49499 724.7367 571.10247 720.42347 C 575.40832 708.86988 575.13176 696.55073 575.13176 684.42347 C 586.4734 683.85157 604.82545 679.55775 610.18645 668.42347 C 616.01555 656.31678 612.13176 635.62305 612.13176 622.42347 C 638.60426 622.42347 676.33121 627.12812 696.90911 608.95081 C 704.86901 601.9195 708.03356 587.81556 712.38176 578.42347 C 714.64236 573.54029 717.77007 568.94654 718.10247 563.42347 C 718.44607 557.71491 713.14187 552.19337 714.10247 547.42347 C 716.88447 533.60926 728.07117 518.04438 734.35247 505.42347 C 736.32637 501.45716 740.89108 494.89948 740.79778 490.42347 C 740.70778 486.12183 734.91256 482.20435 732.13176 479.42347 C 718.51626 465.80805 701.19566 471.42347 683.13176 471.42347 C 683.13176 453.06971 688.15107 435.54304 687.10247 417.42347 C 686.12267 400.49299 680.0655 384.44392 678.2138 367.42347 C 676.4779 351.46857 675.47504 328.59406 665.27044 315.45081 C 658.37604 306.57117 646.35157 302.83009 636.13176 299.42347 C 611.23667 291.12513 584.28461 285.9643 558.13176 284.45081 C 545.29387 283.70789 526.44287 284.7876 515.24114 277.70081 C 512.39205 275.89832 513.76171 272.12177 514.18645 269.42347 C 515.31044 262.28278 515.03451 249.65504 518.85247 243.53284 C 520.42199 241.01606 523.35799 240.48133 524.40911 237.42347 C 526.164 232.31831 522.02693 228.02466 517.2177 228.33167 z M 518.63958 233.60902 C 519.54981 233.94718 520.50014 235.04977 521.13176 237.42347 C 513.53048 238.44978 515.90889 232.59453 518.63958 233.60902 z M 510.56926 286.30433 C 539.80326 286.37745 569.05924 288.94794 597.13176 293.36683 C 616.84987 296.47065 646.71438 301.29627 661.04778 316.45081 C 669.67368 325.57099 670.38867 341.64082 672.35247 353.42347 C 676.93717 380.93183 679.13177 409.54798 679.13176 437.42347 C 679.13176 446.86567 681.2718 459.29383 678.7138 468.39417 C 676.6936 475.581 658.14706 472.42347 652.13176 472.42347 C 634.22656 472.42347 615.99716 473.36029 598.13176 474.39417 C 587.63148 475.00184 579.63371 471.69019 574.13176 482.42347 L 565.15911 480.22816 L 558.74114 489.42347 L 542.88176 519.92347 L 530.13176 521.42347 L 497.13176 521.42347 L 497.13176 520.42347 C 511.64662 518.89875 526.95195 511.44984 536.52044 500.42347 C 539.5039 496.98548 544.19969 495.06952 546.79778 491.39417 C 549.55589 487.49237 551.28735 476.44782 552.74114 471.42347 C 573.76513 398.76466 471.56826 349.75135 427.74114 411.42347 C 421.81274 419.76576 417.26233 430.12879 416.2138 440.42347 C 414.12231 460.95808 420.39089 479.5724 433.52044 495.42347 C 440.72051 504.11597 458.48021 508.97157 455.13176 521.42347 L 397.13176 512.42347 C 395.02522 470.64521 389.3583 428.06086 385.2138 386.42347 C 383.4313 368.51588 387.88494 346.65675 382.65911 329.42347 C 379.37954 318.60841 367.73384 316.43214 358.13176 315.42347 C 362.63631 311.09791 370.31303 309.25526 376.13176 307.03284 C 391.59584 301.12647 407.92241 297.45503 424.13176 294.22816 C 452.12328 288.65571 481.33527 286.23121 510.56926 286.30433 z M 362.34856 318.14808 C 369.69172 318.20034 376.61702 321.25137 380.02044 328.42347 C 382.31508 333.25898 381.13176 340.20857 381.13176 345.42347 C 381.13176 356.22639 381.14356 367.67152 382.2138 378.42347 C 384.76306 404.03437 385.66327 429.79987 388.2138 455.42347 C 390.04577 473.82807 394.13176 492.92719 394.13176 511.42347 C 364.77858 508.3401 344.65483 493.54444 344.13176 462.42347 C 355.11379 462.60798 364.30437 464.08289 373.04778 455.33948 C 391.06728 437.32002 385.15996 396.84669 360.13176 387.86683 C 351.33709 384.71137 344.53337 388.41132 336.13176 390.42347 L 336.13176 350.42347 C 336.13176 343.74024 335.12056 336.46656 338.54778 330.42347 C 342.7748 322.9701 352.90735 318.08088 362.34856 318.14808 z M 611.17864 341.17347 C 610.20932 341.26386 609.19397 341.57101 608.15911 342.14417 C 600.85481 346.1897 607.06837 358.77498 615.10247 354.47816 C 622.45973 350.54327 617.96389 340.54075 611.17864 341.17347 z M 458.47356 342.45081 C 457.44977 342.358 456.33142 342.49642 455.13176 342.92347 C 445.89265 346.21241 450.59731 361.38233 460.13176 357.92347 C 468.09275 355.03544 465.64011 343.10049 458.47356 342.45081 z M 614.78997 390.31019 C 612.3746 390.1891 609.82045 390.34536 607.13176 390.81214 C 561.88497 398.66742 569.90182 471.05878 616.13176 463.03284 C 656.04517 456.10351 651.02053 392.12644 614.78997 390.31019 z M 349.25286 391.318 C 380.65705 390.12399 385.60183 455.08957 353.13176 460.20081 C 343.47026 461.72169 334.32336 453.07923 329.9638 445.42347 C 320.38113 428.59534 322.80966 395.58527 346.13176 391.64417 C 347.1995 391.46374 348.23982 391.35652 349.25286 391.318 z M 488.11028 394.25159 C 493.74918 394.15887 500.88111 396.86668 505.13176 398.45081 C 527.06326 406.62439 543.07745 428.95307 543.13176 452.42347 C 543.14596 458.55891 543.12876 475.10108 536.88176 478.67347 C 531.52263 481.73805 514.71902 477.42347 508.13176 477.42347 L 528.13176 491.42347 C 525.84792 497.35603 517.76628 501.30469 512.13176 503.78284 C 494.53658 511.52137 474.78048 509.15302 458.13176 500.17347 C 428.27803 484.07179 423.77913 451.71174 433.13176 422.42347 L 434.13176 422.42347 C 433.30019 430.33985 432.24526 437.79414 435.54778 445.42347 C 437.6754 450.33863 441.18798 455.61023 445.15911 459.20081 C 476.78329 487.79456 519.96254 445.80421 499.27044 411.42347 C 495.20253 404.6645 489.45934 399.94318 483.13176 395.42347 C 484.51794 394.62481 486.23065 394.2825 488.11028 394.25159 z M 349.97942 397.35316 C 348.44385 397.29025 346.82808 397.44289 345.13176 397.83948 C 320.21339 403.66529 327.23384 459.27522 354.13176 453.17347 C 377.64027 447.84064 373.01302 398.29678 349.97942 397.35316 z M 630.13176 404.03284 C 640.84206 404.30622 640.35056 419.97102 630.13176 420.2555 C 619.75496 420.54438 619.73726 403.76752 630.13176 404.03284 z M 488.07512 405.40394 C 497.37732 405.08275 500.29017 419.43135 490.13176 421.92347 C 480.1801 424.36488 476.17749 408.02802 486.13176 405.67347 C 486.80673 405.51382 487.45498 405.42535 488.07512 405.40394 z M 593.03216 407.568 C 602.02518 407.91436 603.29061 422.72997 593.13176 424.14417 C 583.43158 425.49451 582.14218 409.23408 591.13176 407.70081 C 591.7989 407.58703 592.43262 407.54491 593.03216 407.568 z M 451.0302 411.63636 C 459.99014 412.4371 460.85787 427.27884 451.13176 428.33948 C 440.44038 429.50537 439.01323 412.87916 449.13176 411.67347 C 449.80029 411.59381 450.43287 411.58298 451.0302 411.63636 z M 721.13176 476.42347 L 719.13176 479.42347 L 725.13176 479.42347 L 725.13176 481.42347 L 721.13176 481.42347 L 721.13176 482.42347 L 730.13176 484.42347 L 730.13176 485.42347 L 581.13176 489.42347 L 582.13176 483.42347 L 581.13176 483.42347 L 578.13176 487.42347 C 580.85161 476.26246 603.43167 479.42347 613.13176 479.42347 C 649.14316 479.42347 685.09616 476.42347 721.13176 476.42347 z M 713.13176 480.42347 L 620.13176 483.33948 L 587.13176 484.42347 L 587.13176 485.42347 L 713.13176 482.42347 L 713.13176 480.42347 z M 629.39934 517.20667 C 633.80879 517.18926 638.40485 518.15702 643.18841 520.11097 C 649.97796 522.88432 655.34756 526.62668 659.29387 531.33558 L 652.73137 537.08167 C 648.96196 532.73312 644.7489 529.60629 640.0888 527.70277 C 633.45355 524.99245 627.15869 525.28435 621.20403 528.57777 C 615.26197 531.84032 610.58123 537.65372 607.16497 546.01722 C 603.54701 554.87451 602.63854 562.3893 604.43841 568.56214 C 606.25088 574.70412 610.72148 579.23216 617.85051 582.14417 C 621.86253 583.78297 627.27399 584.94879 634.08489 585.64222 L 631.02239 593.14222 C 625.77283 593.12256 619.8756 591.77566 613.33294 589.10316 C 603.79669 585.20786 597.73399 579.20186 595.14348 571.08558 C 592.55298 562.96929 593.53408 553.33991 598.08489 542.19886 C 602.44661 531.52074 608.66266 524.19399 616.73333 520.21644 C 620.76866 518.22766 624.9899 517.22409 629.39934 517.20667 z M 454.13176 527.42347 L 453.40911 534.08948 L 444.13176 537.45081 L 420.13176 545.42347 C 420.18536 532.67072 443.96806 527.42347 454.13176 527.42347 z M 534.13176 537.42347 L 520.35247 567.42347 L 514.04778 577.70081 L 503.13176 578.67347 L 493.13176 584.42347 C 494.98695 580.09473 498.1704 576.44563 496.65911 571.42347 C 495.72189 568.30903 492.46032 565.75318 492.49114 562.42347 C 492.54424 556.68403 495.80416 553.00049 491.65911 547.45081 C 488.45571 543.16187 482.1722 543.30177 480.13176 538.42347 L 534.13176 537.42347 z M 438.13176 545.64417 C 444.48964 544.82709 444.94726 552.87391 446.4638 557.42347 C 450.80911 570.45936 454.00426 584.65223 454.13176 598.42347 C 454.17586 603.18165 456.18114 612.8982 450.13176 614.31214 C 441.31361 616.37317 417.91585 613.46131 411.63176 606.17347 C 403.81874 597.11256 405.3726 576.23951 407.07512 565.42347 C 407.63402 561.87269 408.01112 556.63312 410.63176 553.89417 C 414.86205 549.47297 431.99776 546.43244 438.13176 545.64417 z M 398.42473 553.77503 C 401.41771 553.9218 404.36073 554.45708 407.13176 555.42347 C 401.83843 573.94972 404.57311 588.01124 408.13176 606.42347 C 396.24193 605.17451 377.34056 602.77259 369.82512 592.42347 C 354.05905 570.71286 377.47387 552.74765 398.42473 553.77503 z M 513.13176 580.42347 C 511.00765 589.13966 502.05902 597.55653 501.4638 606.42347 C 501.12011 611.54328 507.7984 615.9101 510.74114 619.42347 C 517.0119 626.91016 523.0584 625.42347 532.13176 625.42347 C 543.87291 625.42347 555.39055 624.42347 567.13176 624.42347 C 571.85082 624.42347 576.70112 622.82252 581.13176 624.42347 C 577.70386 632.12013 572.36914 631.62268 565.13176 632.81214 C 549.92149 635.31189 532.55675 635.42347 517.13176 635.42347 C 510.6342 635.42347 503.42366 636.23011 498.38176 631.17347 C 490.27232 623.04029 493.94914 605.80421 495.88176 596.42347 C 496.73479 592.28291 495.03927 587.938 498.24114 584.5055 C 501.91839 580.5633 508.21455 581.35316 513.13176 580.42347 z M 490.13176 604.42347 C 490.93111 612.03297 490.10544 624.02894 494.60247 630.42347 C 502.28911 641.35334 514.93399 637.42347 526.13176 637.42347 C 540.36888 637.42347 559.50189 638.86134 573.13176 634.72816 C 579.41765 632.82203 580.12599 627.46576 584.63176 624.14417 C 589.45494 620.58857 602.32596 622.42347 608.13176 622.42347 C 608.13176 633.49012 608.3063 644.44721 607.2138 655.42347 C 606.8138 659.44202 608.26956 664.59211 605.63176 668.03284 C 597.71696 678.35657 578.0703 679.98548 566.13176 681.5055 C 531.58684 685.90364 498.6462 683.56849 464.13176 683.42347 L 458.13176 628.42347 C 473.62614 628.42347 467.28209 620.93751 474.82512 611.92347 C 477.55324 608.66334 486.19905 606.4394 490.13176 604.42347 z M 415.13176 612.42347 L 441.02044 619.36683 L 446.2138 625.92347 L 455.18645 628.7555 L 457.2138 644.42347 L 461.13176 682.42347 C 449.8347 682.23359 430.80614 679.11078 423.60247 669.39417 C 420.05865 664.61414 420.68353 657.9994 419.90911 652.42347 C 418.06194 639.12373 415.13176 625.88758 415.13176 612.42347 z " />
  </g>
</svg>
